<?xml version="1.0" encoding="utf-8"?>
<!-- Generator: Adobe Illustrator 22.1.0, SVG Export Plug-In . SVG Version: 6.00 Build 0)  -->
<svg version="1.1" id="Layer_1" xmlns="http://www.w3.org/2000/svg" xmlns:xlink="http://www.w3.org/1999/xlink" x="0px" y="0px"
	 viewBox="0 0 733.8 344.2" style="enable-background:new 0 0 733.8 344.2;" xml:space="preserve">
<style type="text/css">
	.st0{enable-background:new    ;}
	.st1{fill:#E2E2E2;}
	.st2{fill:url(#SVGID_1_);}
	.st3{fill:url(#SVGID_2_);}
	.st4{fill:#FFFFFF;}
	.st5{fill:#9DDBE0;}
	.st6{fill:#84D0D7;}
	.st7{fill:#6BB2C0;}
	.st8{fill:#538EA3;}
	.st9{fill:#3E6B88;}
	.st10{fill:#3A6482;}
	.st11{fill:#4B8098;}
	.st12{fill:#68AEBC;}
	.st13{fill:#82CED5;}
	.st14{fill:#A3DCE1;}
</style>
<g id="Layer_1_1_">
	<g class="st0">
		<path class="st1" d="M42.8,220v9.7c-4.7-4-9.6-5.9-14.7-5.9c-5.6,0-10.3,2-14.1,6s-5.8,8.9-5.8,14.6c0,5.7,1.9,10.5,5.8,14.4
			c3.8,3.9,8.6,5.9,14.1,5.9c2.9,0,5.3-0.5,7.3-1.4c1.1-0.5,2.3-1.1,3.5-1.9s2.5-1.8,3.8-2.9v9.9c-4.7,2.6-9.6,4-14.8,4
			c-7.8,0-14.4-2.7-19.9-8.1c-5.5-5.5-8.2-12-8.2-19.8c0-6.9,2.3-13.1,6.9-18.5c5.6-6.6,12.9-9.9,21.8-9.9
			C33.6,216,38.3,217.3,42.8,220z"/>
		<path class="st1" d="M55.1,243.9c0-7.6,2.8-14.2,8.4-19.7s12.3-8.2,20.1-8.2c7.7,0,14.4,2.8,19.9,8.3c5.6,5.5,8.3,12.2,8.3,19.9
			c0,7.8-2.8,14.4-8.4,19.9s-12.4,8.2-20.3,8.2c-7,0-13.3-2.4-18.9-7.3C58.1,259.7,55.1,252.6,55.1,243.9z M63.3,244.1
			c0,6,2,10.9,6,14.8s8.6,5.8,13.9,5.8c5.7,0,10.5-2,14.4-5.9c3.9-4,5.9-8.8,5.9-14.6s-1.9-10.6-5.8-14.6c-3.8-3.9-8.6-5.9-14.3-5.9
			c-5.6,0-10.4,2-14.3,5.9C65.3,233.5,63.3,238.3,63.3,244.1z"/>
		<path class="st1" d="M135.3,217.1v46.6h16v7.7h-24.2v-54.3L135.3,217.1L135.3,217.1z"/>
		<path class="st1" d="M159,243.9c0-7.6,2.8-14.2,8.4-19.7c5.6-5.5,12.3-8.2,20.1-8.2c7.7,0,14.4,2.8,19.9,8.3
			c5.6,5.5,8.3,12.2,8.3,19.9c0,7.8-2.8,14.4-8.4,19.9c-5.6,5.5-12.4,8.2-20.3,8.2c-7,0-13.3-2.4-18.9-7.3
			C162.1,259.7,159,252.6,159,243.9z M167.3,244.1c0,6,2,10.9,6,14.8s8.6,5.8,13.9,5.8c5.7,0,10.5-2,14.4-5.9
			c3.9-4,5.9-8.8,5.9-14.6s-1.9-10.6-5.8-14.6c-3.8-3.9-8.6-5.9-14.3-5.9c-5.6,0-10.4,2-14.3,5.9
			C169.3,233.5,167.3,238.3,167.3,244.1z"/>
		<path class="st1" d="M249.4,248.2l16.8,23.1h-10l-15.5-22.2h-1.5v22.2H231V217h9.6c7.2,0,12.4,1.3,15.5,4c3.5,3,5.3,7,5.3,11.9
			c0,3.8-1.1,7.1-3.3,9.9C256,245.7,253.1,247.4,249.4,248.2z M239.2,242h2.6c7.8,0,11.6-3,11.6-8.9c0-5.6-3.8-8.3-11.3-8.3h-2.9
			L239.2,242L239.2,242z"/>
		<path class="st1" d="M311.3,258.1H288l-6,13.2h-8.8l26.9-57.7l25.9,57.7h-9L311.3,258.1z M307.9,250.5l-8.1-18.5l-8.4,18.5H307.9z
			"/>
		<path class="st1" d="M337.7,271.3V217h11.4c5.5,0,9.8,0.5,12.9,1.6c3.4,1.1,6.5,2.8,9.2,5.4c5.6,5.1,8.4,11.8,8.4,20.1
			s-2.9,15.1-8.8,20.2c-2.9,2.6-6,4.4-9.2,5.4c-3,1-7.3,1.5-12.8,1.5h-11.1V271.3z M345.9,263.6h3.7c3.7,0,6.7-0.4,9.2-1.2
			c2.4-0.8,4.6-2.1,6.6-3.9c4-3.7,6-8.5,6-14.4c0-6-2-10.8-6-14.5c-3.6-3.3-8.9-5-15.9-5h-3.7L345.9,263.6L345.9,263.6z"/>
		<path class="st1" d="M392.2,243.9c0-7.6,2.8-14.2,8.4-19.7s12.3-8.2,20.1-8.2c7.7,0,14.4,2.8,19.9,8.3c5.6,5.5,8.3,12.2,8.3,19.9
			c0,7.8-2.8,14.4-8.4,19.9s-12.4,8.2-20.3,8.2c-7,0-13.3-2.4-18.9-7.3C395.3,259.7,392.2,252.6,392.2,243.9z M400.5,244.1
			c0,6,2,10.9,6,14.8s8.6,5.8,13.9,5.8c5.7,0,10.5-2,14.4-5.9c3.9-4,5.9-8.8,5.9-14.6s-1.9-10.6-5.8-14.6c-3.8-3.9-8.6-5.9-14.3-5.9
			c-5.6,0-10.4,2-14.3,5.9C402.4,233.5,400.5,238.3,400.5,244.1z"/>
		<path class="st1" d="M549.3,225.1l-6.6,3.9c-1.2-2.2-2.4-3.6-3.6-4.2c-1.2-0.8-2.7-1.1-4.5-1.1c-2.3,0-4.2,0.6-5.7,1.9
			c-1.5,1.3-2.2,2.9-2.2,4.8c0,2.6,2,4.8,5.9,6.4l5.4,2.2c4.4,1.8,7.6,4,9.7,6.5s3.1,5.7,3.1,9.4c0,5-1.7,9.1-5,12.4
			c-3.4,3.3-7.5,4.9-12.5,4.9c-4.7,0-8.6-1.4-11.7-4.2c-3-2.8-4.9-6.7-5.7-11.8l8.3-1.8c0.4,3.2,1,5.4,2,6.6
			c1.7,2.3,4.1,3.5,7.4,3.5c2.6,0,4.7-0.9,6.4-2.6s2.5-3.9,2.5-6.5c0-1.1-0.1-2-0.4-2.9s-0.8-1.7-1.4-2.4s-1.4-1.4-2.4-2.1
			s-2.2-1.3-3.5-1.8l-5.2-2.2c-7.4-3.1-11.1-7.7-11.1-13.8c0-4.1,1.6-7.5,4.7-10.2c3.1-2.8,7-4.1,11.6-4.1
			C540.9,216,545.8,219,549.3,225.1z"/>
		<path class="st1" d="M573.7,249.3v22h-8.2V217h9.3c4.5,0,8,0.3,10.3,0.9c2.3,0.6,4.4,1.8,6.2,3.6c3.1,3,4.7,6.9,4.7,11.5
			c0,5-1.7,8.9-5,11.8c-3.3,2.9-7.8,4.4-13.5,4.4h-3.8V249.3z M573.7,241.7h3.1c7.5,0,11.3-2.9,11.3-8.7c0-5.6-3.9-8.4-11.6-8.4
			h-2.7L573.7,241.7L573.7,241.7z"/>
		<path class="st1" d="M617.6,217.1v54.3h-8.2v-54.3L617.6,217.1L617.6,217.1z"/>
		<path class="st1" d="M635.6,271.3v-58l39.6,41.4V217h8.2v57.6l-39.6-41.3v38H635.6z"/>
		<path class="st1" d="M731.3,224.8h-21.8v13h21.1v7.7h-21.1v18.1h21.8v7.7h-30V217h30V224.8z"/>
	</g>
	<g class="st0">
		<path class="st1" d="M532.3,298.3h-7.1l-1.9,4h-2.7l8.2-17.7l8,17.7H534L532.3,298.3z M531.3,295.9l-2.5-5.7l-2.6,5.7H531.3z"/>
		<path class="st1" d="M552.4,286.6v3c-1.5-1.2-3-1.8-4.5-1.8c-1.7,0-3.2,0.6-4.3,1.8c-1.2,1.2-1.8,2.7-1.8,4.5
			c0,1.7,0.6,3.2,1.8,4.4c1.2,1.2,2.6,1.8,4.3,1.8c0.9,0,1.6-0.1,2.3-0.4c0.3-0.1,0.7-0.3,1.1-0.6c0.4-0.2,0.8-0.5,1.2-0.9v3
			c-1.4,0.8-3,1.2-4.5,1.2c-2.4,0-4.4-0.8-6.1-2.5c-1.7-1.7-2.5-3.7-2.5-6.1c0-2.1,0.7-4,2.1-5.7c1.7-2,4-3.1,6.7-3.1
			C549.6,285.3,551,285.7,552.4,286.6z"/>
		<path class="st1" d="M569.9,286.6v3c-1.5-1.2-3-1.8-4.5-1.8c-1.7,0-3.2,0.6-4.3,1.8c-1.2,1.2-1.8,2.7-1.8,4.5
			c0,1.7,0.6,3.2,1.8,4.4c1.2,1.2,2.6,1.8,4.3,1.8c0.9,0,1.6-0.1,2.3-0.4c0.3-0.1,0.7-0.3,1.1-0.6c0.4-0.2,0.8-0.5,1.2-0.9v3
			c-1.4,0.8-3,1.2-4.5,1.2c-2.4,0-4.4-0.8-6.1-2.5c-1.7-1.7-2.5-3.7-2.5-6.1c0-2.1,0.7-4,2.1-5.7c1.7-2,4-3.1,6.7-3.1
			C567,285.3,568.5,285.7,569.9,286.6z"/>
		<path class="st1" d="M584.2,288h-6.7v4h6.5v2.4h-6.5v5.6h6.7v2.4H575v-16.7h9.2V288z"/>
		<path class="st1" d="M599,288.1l-2,1.2c-0.4-0.7-0.7-1.1-1.1-1.3c-0.4-0.2-0.8-0.3-1.4-0.3c-0.7,0-1.3,0.2-1.7,0.6
			c-0.5,0.4-0.7,0.9-0.7,1.5c0,0.8,0.6,1.5,1.8,2l1.7,0.7c1.4,0.5,2.3,1.2,3,2s0.9,1.8,0.9,2.9c0,1.5-0.5,2.8-1.5,3.8
			s-2.3,1.5-3.8,1.5c-1.4,0-2.6-0.4-3.6-1.3c-0.9-0.9-1.5-2.1-1.7-3.6l2.5-0.6c0.1,1,0.3,1.7,0.6,2c0.5,0.7,1.3,1.1,2.3,1.1
			c0.8,0,1.4-0.3,2-0.8c0.5-0.5,0.8-1.2,0.8-2c0-0.3,0-0.6-0.1-0.9s-0.2-0.5-0.4-0.7s-0.4-0.4-0.7-0.6s-0.7-0.4-1.1-0.6l-1.6-0.7
			c-2.3-1-3.4-2.4-3.4-4.2c0-1.3,0.5-2.3,1.4-3.1c1-0.8,2.1-1.3,3.6-1.3C596.4,285.3,597.9,286.3,599,288.1z"/>
		<path class="st1" d="M613.8,288.1l-2,1.2c-0.4-0.7-0.7-1.1-1.1-1.3c-0.4-0.2-0.8-0.3-1.4-0.3c-0.7,0-1.3,0.2-1.7,0.6
			c-0.5,0.4-0.7,0.9-0.7,1.5c0,0.8,0.6,1.5,1.8,2l1.7,0.7c1.4,0.5,2.3,1.2,3,2s0.9,1.8,0.9,2.9c0,1.5-0.5,2.8-1.5,3.8
			s-2.3,1.5-3.8,1.5c-1.4,0-2.6-0.4-3.6-1.3c-0.9-0.9-1.5-2.1-1.7-3.6l2.5-0.6c0.1,1,0.3,1.7,0.6,2c0.5,0.7,1.3,1.1,2.3,1.1
			c0.8,0,1.4-0.3,2-0.8c0.5-0.5,0.8-1.2,0.8-2c0-0.3,0-0.6-0.1-0.9s-0.2-0.5-0.4-0.7s-0.4-0.4-0.7-0.6s-0.7-0.4-1.1-0.6L608,294
			c-2.3-1-3.4-2.4-3.4-4.2c0-1.3,0.5-2.3,1.4-3.1c1-0.8,2.1-1.3,3.6-1.3C611.3,285.3,612.8,286.3,613.8,288.1z"/>
		<path class="st1" d="M630.6,285.7v16.7h-2.5v-16.7H630.6z"/>
		<path class="st1" d="M636.6,302.3v-17.8l12.2,12.7v-11.6h2.5v17.7l-12.2-12.7v11.7L636.6,302.3L636.6,302.3z"/>
		<path class="st1" d="M666.7,288.1l-2,1.2c-0.4-0.7-0.7-1.1-1.1-1.3c-0.4-0.2-0.8-0.3-1.4-0.3c-0.7,0-1.3,0.2-1.7,0.6
			c-0.5,0.4-0.7,0.9-0.7,1.5c0,0.8,0.6,1.5,1.8,2l1.7,0.7c1.4,0.5,2.3,1.2,3,2s0.9,1.8,0.9,2.9c0,1.5-0.5,2.8-1.5,3.8
			s-2.3,1.5-3.8,1.5c-1.4,0-2.6-0.4-3.6-1.3c-0.9-0.9-1.5-2.1-1.7-3.6l2.5-0.6c0.1,1,0.3,1.7,0.6,2c0.5,0.7,1.3,1.1,2.3,1.1
			c0.8,0,1.4-0.3,2-0.8c0.5-0.5,0.8-1.2,0.8-2c0-0.3,0-0.6-0.1-0.9s-0.2-0.5-0.4-0.7s-0.4-0.4-0.7-0.6s-0.7-0.4-1.1-0.6l-1.6-0.7
			c-2.3-1-3.4-2.4-3.4-4.2c0-1.3,0.5-2.3,1.4-3.1c1-0.8,2.1-1.3,3.6-1.3C664.1,285.3,665.6,286.3,666.7,288.1z"/>
		<path class="st1" d="M677,288v14.3h-2.5V288h-3.8v-2.4h10.2v2.4H677z"/>
		<path class="st1" d="M687.6,285.7v16.7h-2.5v-16.7H687.6z"/>
		<path class="st1" d="M698.2,288v14.3h-2.5V288h-3.8v-2.4H702v2.4H698.2z"/>
		<path class="st1" d="M708.8,285.7v10c0,1.4,0.2,2.5,0.7,3.1c0.7,1,1.7,1.4,2.9,1.4c1.3,0,2.3-0.5,3-1.4c0.5-0.6,0.7-1.7,0.7-3.1
			v-10h2.5v10.7c0,1.8-0.5,3.2-1.6,4.3c-1.2,1.3-2.7,1.9-4.5,1.9s-3.3-0.6-4.5-1.9c-1.1-1.1-1.6-2.6-1.6-4.3v-10.7H708.8z"/>
		<path class="st1" d="M733.8,288h-6.7v4h6.5v2.4h-6.5v5.6h6.7v2.4h-9.2v-16.7h9.2V288z"/>
	</g>
</g>
<g id="Layer_3">
	
		<linearGradient id="SVGID_1_" gradientUnits="userSpaceOnUse" x1="318.95" y1="624.9335" x2="318.95" y2="818.9559" gradientTransform="matrix(1 0 0 1 0 -628)">
		<stop  offset="4.106571e-03" style="stop-color:#93D9DE"/>
		<stop  offset="1" style="stop-color:#3A6482"/>
	</linearGradient>
	<path class="st2" d="M186.2,202.3c0,0,220.7,1.3,251.3,1.3c-11.3-39.3-3.7-88.3,14.2-119.6C440,72.4,375.2,0,375.2,0L186.2,202.3z"
		/>
	
		<linearGradient id="SVGID_2_" gradientUnits="userSpaceOnUse" x1="573.4638" y1="662.8" x2="573.4638" y2="830.3" gradientTransform="matrix(1 0 0 1 0 -628)">
		<stop  offset="4.106571e-03" style="stop-color:#93D9DE"/>
		<stop  offset="1" style="stop-color:#3A6482"/>
	</linearGradient>
	<path class="st3" d="M684.7,202.3c0,0-170.2,0-181.2,0c-21.8-22-49.8-79-38.8-109.2c10.9-10.9,62.2-58.3,62.2-58.3L684.7,202.3z"/>
</g>
<g id="Layer_4">
	<polygon class="st4" points="372.2,15.3 324.2,67.3 346.2,60.3 329.2,103.3 371.2,69.3 	"/>
	<polygon class="st4" points="525.5,45.7 525.5,75.7 517.5,90.3 520.9,109 484.9,83.7 	"/>
</g>
<g id="SPINE">
	<circle class="st5" cx="453" cy="100.2" r="4"/>
	<circle class="st6" cx="450.4" cy="124.7" r="5"/>
	<circle class="st7" cx="451.6" cy="149.2" r="6"/>
	<circle class="st8" cx="458.1" cy="173.8" r="7.5"/>
	<circle class="st9" cx="465.9" cy="196.9" r="9"/>
	<circle class="st10" cx="476.1" cy="220.5" r="10"/>
	<circle class="st11" cx="480" cy="246" r="9"/>
	<circle class="st12" cx="481.3" cy="270.5" r="8"/>
	<circle class="st13" cx="477.5" cy="295.1" r="6.5"/>
	<circle class="st13" cx="468.4" cy="318.3" r="5.5"/>
	<ellipse class="st14" cx="458.1" cy="340.2" rx="4" ry="4"/>
</g>
</svg>
