<?xml version="1.0" encoding="utf-8"?>
<!-- Generator: Adobe Illustrator 22.1.0, SVG Export Plug-In . SVG Version: 6.00 Build 0)  -->
<svg version="1.1" id="Layer_1" xmlns="http://www.w3.org/2000/svg" xmlns:xlink="http://www.w3.org/1999/xlink" x="0px" y="0px"
	 viewBox="0 0 100 100" style="enable-background:new 0 0 100 100;" xml:space="preserve">
<style type="text/css">
	.st0{fill:none;stroke:#386080;stroke-width:4;stroke-linecap:round;stroke-miterlimit:10;}
	.st1{display:none;fill:#386080;enable-background:new    ;}
	.st2{font-family:'Raleway-Medium';}
	.st3{font-size:42px;}
	.st4{enable-background:new    ;}
	.st5{fill:#386080;}
</style>
<line class="st0" x1="2" y1="48.4" x2="2" y2="88.6"/>
<line class="st0" x1="17" y1="68.5" x2="17" y2="88.6"/>
<line class="st0" x1="34.2" y1="68.5" x2="34.2" y2="88.6"/>
<line class="st0" x1="51.1" y1="48.4" x2="51.1" y2="88.6"/>
<line class="st0" x1="67.4" y1="68.5" x2="67.4" y2="88.6"/>
<line class="st0" x1="84.1" y1="68.5" x2="84.1" y2="88.6"/>
<line class="st0" x1="98" y1="48.4" x2="98" y2="88.6"/>
<text transform="matrix(1 0 0 1 18.4229 31.9941)" class="st1 st2 st3">1-2”</text>
<g class="st4">
	<path class="st5" d="M36.3,28.6V32H21.2v-3.4h6V12.3c-0.3,0.3-0.6,0.7-1.2,1.1c-0.5,0.4-1.1,0.7-1.8,1c-0.7,0.3-1.3,0.6-2,0.8
		c-0.7,0.2-1.3,0.3-1.8,0.3V12c0.6,0,1.3-0.2,2.1-0.5c0.8-0.4,1.5-0.8,2.2-1.2s1.3-0.9,1.8-1.3c0.5-0.4,0.8-0.7,0.9-0.9h3.8v20.6
		H36.3z"/>
	<path class="st5" d="M39.3,22.2v-3.4h12.4v3.4H39.3z"/>
	<path class="st5" d="M56.1,32c0-1.1,0.1-2.2,0.3-3.2c0.2-1,0.5-1.9,1-2.8c0.5-0.9,1.2-1.8,2.1-2.6c0.9-0.8,2-1.6,3.5-2.4
		c0.8-0.4,1.7-0.9,2.6-1.3c0.9-0.4,1.7-0.9,2.4-1.4c0.7-0.5,1.3-1,1.8-1.6c0.5-0.6,0.7-1.2,0.7-2c0-0.5-0.1-1-0.3-1.4
		c-0.2-0.5-0.5-0.9-1-1.3c-0.4-0.4-0.9-0.7-1.6-0.9c-0.6-0.2-1.4-0.3-2.2-0.3c-0.8,0-1.6,0.1-2.3,0.4c-0.7,0.2-1.3,0.5-1.8,0.9
		c-0.5,0.4-1,0.7-1.4,1.1c-0.4,0.4-0.7,0.7-1,1.1l-2.4-2.7c0.2-0.3,0.6-0.6,1.1-1c0.5-0.4,1.2-0.9,2-1.3s1.8-0.8,2.8-1.2
		c1.1-0.3,2.3-0.5,3.6-0.5c1.3,0,2.4,0.2,3.5,0.5c1,0.4,1.9,0.8,2.6,1.4s1.3,1.3,1.7,2.2c0.4,0.8,0.6,1.7,0.6,2.6
		c0,1.1-0.2,2-0.7,2.9c-0.5,0.8-1.1,1.5-1.7,2.1c-0.7,0.6-1.4,1.1-2.2,1.6c-0.8,0.4-1.5,0.8-2.1,1.1c-0.6,0.3-1.3,0.7-2.1,1.1
		c-0.8,0.4-1.5,0.9-2.2,1.5c-0.7,0.5-1.3,1.2-1.8,1.8c-0.5,0.7-0.8,1.4-1,2.2h14.3V32H56.1z"/>
	<path class="st5" d="M79,1.3c0.5,0,1,0.1,1.4,0.2C81,1.6,81.4,1.8,81.8,2c0.4,0.2,0.7,0.6,1,1c0.3,0.4,0.4,0.9,0.4,1.5v5.2h-3.1
		V5.1c0-0.4-0.1-0.7-0.4-0.8S79.2,4.1,79,4.1V1.3z M85.2,1.3c0.5,0,1,0.1,1.4,0.2C87.2,1.6,87.6,1.8,88,2c0.4,0.2,0.7,0.6,1,1
		c0.3,0.4,0.4,0.9,0.4,1.5v5.2h-3.1V5.1c0-0.4-0.1-0.7-0.4-0.8c-0.3-0.1-0.5-0.2-0.7-0.2V1.3z"/>
</g>
</svg>
