<?xml version="1.0" encoding="utf-8"?>
<!-- Generator: Adobe Illustrator 21.1.0, SVG Export Plug-In . SVG Version: 6.00 Build 0)  -->
<svg version="1.1" id="Layer_1" xmlns="http://www.w3.org/2000/svg" xmlns:xlink="http://www.w3.org/1999/xlink" x="0px" y="0px"
	 viewBox="0 0 20 16.1" style="enable-background:new 0 0 20 16.1;" xml:space="preserve">
<style type="text/css">
	.st0{fill:#386080;}
</style>
<path class="st0" d="M18.5,3.1H1.6c-0.8,0-1.5-0.7-1.5-1.5v0C0.1,0.7,0.8,0,1.6,0l16.8,0C19.3,0,20,0.7,20,1.5v0
	C20,2.4,19.3,3.1,18.5,3.1z"/>
<path class="st0" d="M18.4,16.1H1.6c-0.8,0-1.5-0.7-1.5-1.5v0c0-0.8,0.7-1.5,1.5-1.5h16.8c0.8,0,1.5,0.7,1.5,1.5v0
	C19.9,15.4,19.3,16.1,18.4,16.1z"/>
<path class="st0" d="M18.5,9.5H1.6C0.8,9.5,0.1,8.8,0.1,8v0c0-0.8,0.7-1.5,1.5-1.5h16.8C19.3,6.5,20,7.2,20,8v0
	C20,8.8,19.3,9.5,18.5,9.5z"/>
</svg>
