<?xml version="1.0" encoding="utf-8"?>
<!-- Generator: Adobe Illustrator 22.1.0, SVG Export Plug-In . SVG Version: 6.00 Build 0)  -->
<svg version="1.1" id="Layer_2_1_" xmlns="http://www.w3.org/2000/svg" xmlns:xlink="http://www.w3.org/1999/xlink" x="0px" y="0px"
	 viewBox="0 0 100 100" style="enable-background:new 0 0 100 100;" xml:space="preserve">
<style type="text/css">
	.st0{fill:none;stroke:#386080;stroke-width:4;stroke-linecap:round;stroke-miterlimit:10;}
</style>
<line class="st0" x1="2.8" y1="47.2" x2="2.8" y2="96.9"/>
<line class="st0" x1="50" y1="27" x2="50" y2="96.9"/>
<line class="st0" x1="85.8" y1="18.4" x2="85.8" y2="27"/>
<line class="st0" x1="85.8" y1="32.8" x2="85.8" y2="41.4"/>
<line class="st0" x1="85.8" y1="47.4" x2="85.8" y2="56"/>
<line class="st0" x1="85.8" y1="62" x2="85.8" y2="70.6"/>
<line class="st0" x1="85.8" y1="76.4" x2="85.8" y2="85"/>
<line class="st0" x1="39.2" y1="15.5" x2="39.2" y2="30.3"/>
<line class="st0" x1="74.7" y1="35.7" x2="74.7" y2="96.9"/>
<line class="st0" x1="97.7" y1="12.1" x2="97.7" y2="96.9"/>
<line class="st0" x1="2.8" y1="96.9" x2="97.7" y2="96.9"/>
<line class="st0" x1="9.7" y1="56.1" x2="39.3" y2="47.2"/>
<line class="st0" x1="10.2" y1="66.8" x2="39.2" y2="60.8"/>
<line class="st0" x1="10.4" y1="77.8" x2="39.2" y2="75"/>
<line class="st0" x1="10.1" y1="89.2" x2="39.2" y2="88.8"/>
<line class="st0" x1="97.7" y1="12.1" x2="67.8" y2="2.5"/>
<line class="st0" x1="67.8" y1="2.5" x2="39.2" y2="15.5"/>
<line class="st0" x1="50" y1="27" x2="2.8" y2="47.2"/>
<line class="st0" x1="50" y1="27" x2="74.7" y2="35.7"/>
</svg>
