<?xml version="1.0" encoding="utf-8"?>
<!-- Generator: Adobe Illustrator 22.1.0, SVG Export Plug-In . SVG Version: 6.00 Build 0)  -->
<svg version="1.1" id="Layer_1" xmlns="http://www.w3.org/2000/svg" xmlns:xlink="http://www.w3.org/1999/xlink" x="0px" y="0px"
	 viewBox="0 0 77.8 219.8" style="enable-background:new 0 0 77.8 219.8;" xml:space="preserve">
<style type="text/css">
	.st0{fill:#8BD5DB;}
	.st1{fill:#9DDBE0;}
	.st2{fill:#ACDDE2;}
	.st3{fill:#72BCC7;}
	.st4{fill:#84D0D7;}
	.st5{fill:#97DADF;}
	.st6{fill:#5D9DAF;}
	.st7{fill:#6BB2C0;}
	.st8{fill:#7CC9D1;}
	.st9{fill:#416F8C;}
	.st10{fill:#538EA3;}
	.st11{fill:#67ACBA;}
	.st12{fill:#386180;}
	.st13{fill:#3E6B88;}
	.st14{fill:#4A7E97;}
	.st15{fill:#41708C;}
	.st16{fill:#3A6482;}
	.st17{fill:#3B6584;}
	.st18{fill:#60A2B3;}
	.st19{fill:#4B8098;}
	.st20{fill:#3D6886;}
	.st21{fill:#68AEBC;}
	.st22{fill:#548EA4;}
	.st23{fill:#8ED6DC;}
	.st24{fill:#82CED5;}
	.st25{fill:#6FB8C5;}
	.st26{fill:#A0DCE1;}
	.st27{fill:#93D9DE;}
	.st28{fill:#85D0D7;}
	.st29{fill:#A3DCE1;}
	.st30{fill:#96DADF;}
</style>
<circle class="st0" cx="6.2" cy="30.9" r="2.9"/>
<circle class="st1" cx="28.2" cy="16.9" r="2.9"/>
<circle class="st2" cx="51.2" cy="2.9" r="2.9"/>
<circle class="st3" cx="3.2" cy="49.9" r="3.2"/>
<circle class="st4" cx="26.2" cy="35.9" r="3.2"/>
<circle class="st5" cx="48.2" cy="21.9" r="3.2"/>
<circle class="st6" cx="5.2" cy="68.9" r="3.8"/>
<circle class="st7" cx="27.2" cy="54.9" r="3.8"/>
<circle class="st8" cx="50.2" cy="40.9" r="3.8"/>
<circle class="st9" cx="10.2" cy="87.9" r="4.5"/>
<circle class="st10" cx="32.2" cy="73.9" r="4.5"/>
<circle class="st11" cx="55.2" cy="59.9" r="4.5"/>
<circle class="st12" cx="16.2" cy="105.9" r="5.5"/>
<circle class="st13" cx="38.2" cy="91.9" r="5.5"/>
<circle class="st14" cx="61.2" cy="78.9" r="5.5"/>
<circle class="st15" cx="23.2" cy="123.9" r="6"/>
<circle class="st16" cx="46.2" cy="110.9" r="6"/>
<circle class="st17" cx="68.2" cy="95.9" r="6"/>
<circle class="st18" cx="27.2" cy="142.9" r="5.5"/>
<circle class="st19" cx="49.2" cy="129.9" r="5.5"/>
<circle class="st20" cx="72.2" cy="114.9" r="5.5"/>
<circle class="st8" cx="27.2" cy="162.9" r="4.5"/>
<circle class="st21" cx="50.2" cy="148.9" r="4.5"/>
<circle class="st22" cx="73.2" cy="134.9" r="4.5"/>
<circle class="st23" cx="25.2" cy="181.9" r="3.8"/>
<circle class="st24" cx="47.2" cy="167.9" r="3.8"/>
<circle class="st25" cx="70.2" cy="153.9" r="3.8"/>
<circle class="st26" cx="18.2" cy="199.9" r="3.2"/>
<circle class="st27" cx="40.2" cy="185.9" r="3.2"/>
<circle class="st28" cx="63.2" cy="171.9" r="3.2"/>
<circle class="st8" cx="9.2" cy="216.9" r="2.9"/>
<circle class="st29" cx="32.2" cy="202.9" r="2.9"/>
<circle class="st30" cx="54.2" cy="188.9" r="2.9"/>
</svg>
