<?xml version="1.0" encoding="utf-8"?>
<!-- Generator: Adobe Illustrator 22.1.0, SVG Export Plug-In . SVG Version: 6.00 Build 0)  -->
<svg version="1.1" id="Layer_1" xmlns="http://www.w3.org/2000/svg" xmlns:xlink="http://www.w3.org/1999/xlink" x="0px" y="0px"
	 viewBox="0 0 100 104" style="enable-background:new 0 0 100 104;" xml:space="preserve">
<style type="text/css">
	.st0{fill:none;stroke:#82CED5;stroke-width:4;stroke-linecap:round;stroke-miterlimit:10;}
	.st1{fill:#FDFBFF;stroke:#82CED5;stroke-width:4;stroke-miterlimit:10;}
	.st2{fill:#82CED5;}
	.st3{fill:none;stroke:#386080;stroke-width:4;stroke-linecap:round;stroke-miterlimit:10;}
	.st4{fill:#FDFBFF;stroke:#386080;stroke-width:4;stroke-miterlimit:10;}
</style>
<g id="Layer_1_copy">
	<path class="st0" d="M66.4,58.7h5.4c3.6,0,6.6-2.9,6.6-6.6s-2.9-6.6-6.6-6.6l-5.4-0.2"/>
	<path class="st0" d="M21.7,7.9c4.1-8.3,40.6-7.8,44.3,1"/>
	<path class="st0" d="M21.7,96.1c4.1,8.3,40.6,7.8,44.3-0.9"/>
	<path class="st0" d="M22.2,16.2l-6-0.2c-3.6,0-6.6,2.9-6.6,6.6s2.9,6.6,6.6,6.6h5.5"/>
	<path class="st0" d="M65.4,15.8l6-0.2c3.6,0,6.6,2.9,6.6,6.6s-2.9,6.6-6.6,6.6h-5"/>
	<path class="st0" d="M21.7,45.3l-5.5,0.2c-3.6,0-6.6,2.9-6.6,6.6s2.9,6.6,6.6,6.6h5.5"/>
	<path class="st0" d="M21.7,74.3l-5.5,0.2c-3.6,0-6.6,2.9-6.6,6.6s2.9,6.6,6.6,6.6h5.5"/>
	<path class="st0" d="M66.4,74.3l5.4,0.2c3.6,0,6.6,2.9,6.6,6.6s-2.9,6.6-6.6,6.6h-5.4"/>
	<path class="st0" d="M22.2,29.2c0.8,6.9,0.6,13.6-0.5,16"/>
	<path class="st0" d="M66.4,28.7c-0.8,6.9-1.1,14.2,0,16.6"/>
	<path class="st0" d="M66.4,58.7c-0.8,6.9-1.1,13.3,0,15.7"/>
	<path class="st0" d="M21.7,58.7c0.8,6.9,1.1,13.3,0,15.7"/>
	<line class="st0" x1="21.7" y1="7.9" x2="22.2" y2="16.2"/>
	<line class="st0" x1="65" y1="15.8" x2="66" y2="8.9"/>
	<path class="st1" d="M22.2,16.4"/>
	<path class="st0" d="M31.9,42.9"/>
	<line class="st0" x1="21.7" y1="87.7" x2="21.7" y2="96"/>
	<line class="st0" x1="66.4" y1="87.7" x2="66" y2="95.1"/>
</g>
<g id="Layer_3">
	<path class="st2" d="M74.1,76.3c-2.9-0.4-5.8-0.9-8.7-1.3c-0.1-0.9-0.1-1.7-0.2-2.6c-0.3-5-0.1-9.9,0.3-14.9H73c7.1,0,7.1-11,0-11
		h-6.5c0.3-0.6,0.4-1.4,0.4-2.2c0-5.7-0.2-11.4-0.5-17.1l4.9,0.4c3,0.2,5.5-2.7,5.5-5.5c0-3.2-2.5-5.3-5.5-5.5l-5.9-0.5V16
		C65,12.2,65.1,8.1,62,5.4c-2.7-2.3-6.5-3-10-3.3c-4.3-0.3-8.7,0-13,0.3s-9,0.3-12.7,2.8c-4.2,2.8-5.4,7.3-5.4,11.9
		c-1.5,0.1-3,0.1-4.6,0.1c-3,0-5.5,2.6-5.5,5.5c0,3,2.5,5.5,5.5,5.5c2.1,0,4.3,0,6.4-0.2c0.4,6.2,0.5,12.4,0.2,18.6
		c-2.3,0.2-4.7,0.2-7,0.2c-7.1-0.1-7.1,10.9,0,11c2.2,0,4.4,0,6.5-0.2c0.5,4.5,1.1,8.9,1.4,13.4c-1.6,0.8-2.6,2.3-2.9,4.1
		c-1.6,0.1-3.1,0.1-4.7,0.2c-3,0.1-5.5,2.4-5.5,5.5c0,2.9,2.5,5.6,5.5,5.5c2.3-0.1,4.6-0.2,6.9-0.3c-0.3,1.5-0.5,3-0.8,4.6
		c-0.4,2,0.2,3.6,1.3,4.8c0.4,1.1,1.2,2.1,2.5,2.7c7.1,3.2,14.2,3.2,21.3,2.2c3.2,0.6,6.4,0.4,9-1.6c1.3-0.3,2.6-0.5,3.9-0.8
		c1-0.2,1.8-0.6,2.4-1.1c1.1-0.6,1.9-1.7,2.2-3.4c0.4-2.5,0.6-4.9,0.7-7.3c1.8,0.3,3.7,0.5,5.5,0.8c2.9,0.4,5.9-0.7,6.8-3.8
		C78.6,80.4,77.1,76.7,74.1,76.3z"/>
</g>
<g id="Layer_1_copy_2">
	<path class="st3" d="M72.4,58.7h5.4c3.6,0,6.6-2.9,6.6-6.6s-2.9-6.6-6.6-6.6l-5.4-0.2"/>
	<path class="st3" d="M27.7,7.9c4.1-8.3,40.6-7.8,44.3,1"/>
	<path class="st3" d="M27.7,96.1c4.1,8.3,40.6,7.8,44.3-0.9"/>
	<path class="st3" d="M28.6,67.4c4.1,8.3,39.2,7.4,42.9-1.4"/>
	<path class="st3" d="M28.6,38.4c4.1,8.3,39.2,8.3,42.9-0.5"/>
	<path class="st3" d="M28.2,16.2l-6-0.2c-3.6,0-6.6,2.9-6.6,6.6s2.9,6.6,6.6,6.6h5.5"/>
	<path class="st3" d="M71.4,15.8l6-0.2c3.6,0,6.6,2.9,6.6,6.6s-2.9,6.6-6.6,6.6h-5"/>
	<path class="st3" d="M27.7,45.3l-5.5,0.2c-3.6,0-6.6,2.9-6.6,6.6s2.9,6.6,6.6,6.6h5.5"/>
	<path class="st3" d="M27.7,74.3l-5.5,0.2c-3.6,0-6.6,2.9-6.6,6.6s2.9,6.6,6.6,6.6h5.5"/>
	<path class="st3" d="M72.4,74.3l5.4,0.2c3.6,0,6.6,2.9,6.6,6.6s-2.9,6.6-6.6,6.6h-5.4"/>
	<path class="st3" d="M35.5,13.5c0.8,6.9,0.2,16.4-0.8,18.8"/>
	<path class="st3" d="M28.2,29.2c0.8,6.9,0.6,13.6-0.5,16"/>
	<path class="st3" d="M72.4,28.7c-0.8,6.9-1.1,14.2,0,16.6"/>
	<path class="st3" d="M72.4,58.7c-0.8,6.9-1.1,13.3,0,15.7"/>
	<path class="st3" d="M27.7,58.7c0.8,6.9,1.1,13.3,0,15.7"/>
	<path class="st3" d="M36.3,49.9c0.1,4.9-0.4,11.7-0.8,13.4"/>
	<path class="st3" d="M35.8,78.5c0.1,4.9-0.4,11.7-0.8,13.4"/>
	<line class="st3" x1="27.7" y1="7.9" x2="28.2" y2="16.2"/>
	<line class="st3" x1="71" y1="15.8" x2="72" y2="8.9"/>
	<path class="st4" d="M28.2,16.4"/>
	<path class="st3" d="M37.9,42.9"/>
	<line class="st3" x1="27.7" y1="87.7" x2="27.7" y2="96"/>
	<line class="st3" x1="72.4" y1="87.7" x2="72" y2="95.1"/>
</g>
</svg>
