<?xml version="1.0" encoding="utf-8"?>
<!-- Generator: Adobe Illustrator 22.1.0, SVG Export Plug-In . SVG Version: 6.00 Build 0)  -->
<svg version="1.1" id="Layer_1" xmlns="http://www.w3.org/2000/svg" xmlns:xlink="http://www.w3.org/1999/xlink" x="0px" y="0px"
	 viewBox="0 0 205.8 77.7" style="enable-background:new 0 0 205.8 77.7;" xml:space="preserve">
<style type="text/css">
	.st0{fill:#8BD5DB;}
	.st1{fill:#9DDBE0;}
	.st2{fill:#ACDDE2;}
	.st3{fill:#72BCC7;}
	.st4{fill:#84D0D7;}
	.st5{fill:#97DADF;}
	.st6{fill:#5D9DAF;}
	.st7{fill:#6BB2C0;}
	.st8{fill:#7CC9D1;}
	.st9{fill:#416F8C;}
	.st10{fill:#538EA3;}
	.st11{fill:#67ACBA;}
	.st12{fill:#386180;}
	.st13{fill:#3E6B88;}
	.st14{fill:#4A7E97;}
	.st15{fill:#41708C;}
	.st16{fill:#3A6482;}
	.st17{fill:#3B6584;}
	.st18{fill:#60A2B3;}
	.st19{fill:#4B8098;}
	.st20{fill:#3D6886;}
	.st21{fill:#68AEBC;}
	.st22{fill:#548EA4;}
	.st23{fill:#8ED6DC;}
	.st24{fill:#82CED5;}
	.st25{fill:#6FB8C5;}
	.st26{fill:#A0DCE1;}
	.st27{fill:#93D9DE;}
	.st28{fill:#85D0D7;}
	.st29{fill:#A3DCE1;}
	.st30{fill:#96DADF;}
</style>
<circle class="st0" cx="174.9" cy="6.2" r="2.9"/>
<circle class="st1" cx="188.9" cy="28.2" r="2.9"/>
<circle class="st2" cx="202.9" cy="51.2" r="2.9"/>
<circle class="st3" cx="155.9" cy="3.2" r="3.2"/>
<circle class="st4" cx="169.9" cy="26.2" r="3.2"/>
<circle class="st5" cx="183.9" cy="48.2" r="3.2"/>
<circle class="st6" cx="136.9" cy="5.2" r="3.8"/>
<circle class="st7" cx="150.9" cy="27.2" r="3.8"/>
<circle class="st8" cx="164.9" cy="50.2" r="3.8"/>
<circle class="st9" cx="117.9" cy="10.2" r="4.5"/>
<circle class="st10" cx="131.9" cy="32.2" r="4.5"/>
<circle class="st11" cx="145.9" cy="55.2" r="4.5"/>
<circle class="st12" cx="99.9" cy="16.2" r="5.5"/>
<circle class="st13" cx="113.9" cy="38.2" r="5.5"/>
<circle class="st14" cx="126.9" cy="61.2" r="5.5"/>
<circle class="st15" cx="81.9" cy="23.2" r="6"/>
<circle class="st16" cx="94.9" cy="46.2" r="6"/>
<circle class="st17" cx="109.9" cy="68.2" r="6"/>
<circle class="st18" cx="62.9" cy="27.2" r="5.5"/>
<circle class="st19" cx="75.9" cy="49.2" r="5.5"/>
<circle class="st20" cx="90.9" cy="72.2" r="5.5"/>
<circle class="st8" cx="42.9" cy="27.2" r="4.5"/>
<circle class="st21" cx="56.9" cy="50.2" r="4.5"/>
<circle class="st22" cx="70.9" cy="73.2" r="4.5"/>
<circle class="st23" cx="23.9" cy="25.2" r="3.8"/>
<circle class="st24" cx="37.9" cy="47.2" r="3.8"/>
<circle class="st25" cx="51.9" cy="70.2" r="3.8"/>
<circle class="st26" cx="5.9" cy="18.2" r="3.2"/>
<circle class="st27" cx="19.9" cy="40.2" r="3.2"/>
<circle class="st28" cx="33.9" cy="63.2" r="3.2"/>
<circle class="st8" cx="73.2" cy="152.9" r="2.9"/>
<circle class="st29" cx="2.9" cy="32.2" r="2.9"/>
<circle class="st30" cx="16.9" cy="54.2" r="2.9"/>
</svg>
