<?xml version="1.0" encoding="utf-8"?>
<!-- Generator: Adobe Illustrator 22.1.0, SVG Export Plug-In . SVG Version: 6.00 Build 0)  -->
<svg version="1.1" xmlns="http://www.w3.org/2000/svg" xmlns:xlink="http://www.w3.org/1999/xlink" x="0px" y="0px"
	 viewBox="0 0 128 100" style="enable-background:new 0 0 128 100;" xml:space="preserve">
<style type="text/css">
	.st0{fill:#82CED5;}
	.st1{fill:none;stroke:#386080;stroke-width:4;stroke-miterlimit:10;}
</style>
<g id="Layer_1">
	<ellipse class="st0" cx="28" cy="24.3" rx="9.8" ry="11"/>
	<ellipse class="st0" cx="89.3" cy="24.3" rx="9.8" ry="11"/>
	<ellipse class="st0" cx="58.8" cy="26.4" rx="11.3" ry="12.7"/>
	<path class="st0" d="M38.5,82.1l0.8-16.7c0-12.7,9.5-21.3,19.5-21.3S78,52.7,78,65.4l0.9,16.3C78.9,88.2,38.5,88.2,38.5,82.1z"/>
	<path class="st0" d="M77.6,45.4c3.2-3.6,7.4-6.2,11.9-6.2c8.9,0,16.8,10.1,16.8,18.7l0.7,14.3c0,3.4-12.2,4.8-22.2,4.3
		C84.8,56.1,82.3,50.4,77.6,45.4z"/>
	<path class="st0" d="M40.4,45.4c-3.2-3.6-7.4-6.2-11.9-6.2c-8.9,0-16.8,10.1-16.8,18.6L11,72.1c0,3.4,12.2,4.8,22.2,4.3
		C33.2,56.1,35.6,50.4,40.4,45.4z"/>
</g>
<g id="Layer_1_copy">
	<ellipse class="st1" cx="32" cy="24.3" rx="9.8" ry="11"/>
	<ellipse class="st1" cx="93.3" cy="24.3" rx="9.8" ry="11"/>
	<ellipse class="st1" cx="62.8" cy="26.4" rx="11.3" ry="12.7"/>
	<path class="st1" d="M42.5,82.1l0.8-16.7c0-12.7,9.5-21.3,19.5-21.3S82,52.7,82,65.4l0.9,16.3C82.9,88.2,42.5,88.2,42.5,82.1z"/>
	<path class="st1" d="M81.6,45.4c3.2-3.6,7.4-6.2,11.9-6.2c8.9,0,16.8,10.1,16.8,18.7l0.7,14.3c0,3.4-12.2,4.8-22.2,4.3
		C88.8,56.1,86.3,50.4,81.6,45.4z"/>
	<path class="st1" d="M44.4,45.4c-3.2-3.6-7.4-6.2-11.9-6.2c-8.9,0-16.8,10.1-16.8,18.6L15,72.1c0,3.4,12.2,4.8,22.2,4.3
		C37.2,56.1,39.6,50.4,44.4,45.4z"/>
</g>
</svg>
