<?xml version="1.0" encoding="utf-8"?>
<!-- Generator: Adobe Illustrator 16.0.0, SVG Export Plug-In . SVG Version: 6.00 Build 0)  -->
<!DOCTYPE svg PUBLIC "-//W3C//DTD SVG 1.1//EN" "http://www.w3.org/Graphics/SVG/1.1/DTD/svg11.dtd">
<svg version="1.1" id="Layer_1" xmlns="http://www.w3.org/2000/svg" xmlns:xlink="http://www.w3.org/1999/xlink" x="0px" y="0px"
	 width="215px" height="42px" viewBox="288.5 0 215 42" enable-background="new 288.5 0 215 42" xml:space="preserve">
<g>
	<g>
		<g>
			<path fill="#231F20" d="M381.085,17.884V0.724h6.485c3.093-0.2,6.185,1.097,6.185,4.489c0,1.896-1.297,3.193-2.993,3.792l0,0
				c2.195,0.499,3.791,1.995,3.791,4.489c0,3.392-4.29,4.689-6.884,4.49h-6.584V17.884z M387.669,7.607
				c1.596,0,2.395-0.599,2.395-1.995c0-1.397-0.898-1.996-2.395-1.996h-2.894v4.091h2.894V7.607z M387.669,14.99
				c1.696,0,2.894-0.299,2.894-2.294c0-1.996-1.197-2.295-2.894-2.295h-2.894v4.589H387.669z"/>
			<path fill="#231F20" d="M400.439,0.724v17.16h-3.592V0.724H400.439z"/>
			<path fill="#231F20" d="M411.314,16.387c-0.798,1.097-1.896,1.796-3.691,1.796c-1.197,0-3.492-0.898-3.891-2.594
				c-0.2-0.698-0.2-1.497-0.2-1.896V5.912h3.592v7.183c0,1.297,0.399,2.793,2.096,2.793c1.097,0,2.095-0.998,2.095-2.793V5.912
				h3.592v9.777c0,0.698,0.1,1.396,0.1,2.095h-3.592L411.314,16.387z"/>
			<path fill="#231F20" d="M421.191,12.895c0,1.597,0.199,2.993,2.095,2.993c1.197,0,1.896-0.499,2.195-1.596h3.192
				c-0.299,2.993-2.594,3.891-5.388,3.891c-4.09,0-5.786-2.295-5.786-6.286c0-3.591,2.095-6.385,5.786-6.385
				c2.195,0,4.091,0.798,5.089,2.894c0.299,0.698,0.498,1.396,0.599,2.095c0.1,0.698,0.1,1.497,0.1,2.294h-7.882V12.895z
				 M425.382,10.501c0-1.297-0.399-2.494-2.096-2.494c-1.596,0-1.995,1.197-2.095,2.494H425.382z"/>
			<path fill="#231F20" d="M441.146,6.211c0-1.796-1.098-3.292-3.293-3.292c-2.594,0-3.292,3.891-3.292,6.285
				c0,2.395,0.698,6.286,3.292,6.286c2.195,0,3.293-1.497,3.293-3.292h3.891c-0.2,4.29-3.292,5.886-7.184,5.886
				c-4.988,0-7.184-3.891-7.184-8.979c0-4.988,2.195-8.979,7.184-8.979c3.991,0,7.084,1.596,7.184,5.886h-3.891V6.211z"/>
			<path fill="#231F20" d="M450.224,5.912l0.1,2.195l0,0c0.799-1.896,2.295-2.395,4.091-2.295v3.193h-1.597
				c-0.599,0-1.396,0.399-1.695,0.898c-0.399,0.698-0.499,1.297-0.499,2.095v5.886h-3.592V8.306c0-0.499-0.1-1.497-0.1-2.395
				H450.224z"/>
			<path fill="#231F20" d="M462.196,18.283c-3.892,0-6.285-2.594-6.285-6.385c0-3.791,2.294-6.385,6.285-6.385
				c3.891,0,6.285,2.594,6.285,6.385C468.481,15.689,466.087,18.283,462.196,18.283z M462.196,15.888
				c2.194,0,2.594-2.095,2.594-3.991s-0.399-3.991-2.594-3.991c-2.195,0-2.595,2.095-2.595,3.991
				C459.702,13.793,460.001,15.888,462.196,15.888z"/>
			<path fill="#231F20" d="M477.062,9.104c0-0.798-0.798-1.197-1.597-1.197c-0.997,0-1.396,0.299-1.396,1.098
				c0,1.896,6.884,0.798,6.884,5.288c0,2.594-3.192,3.891-5.388,3.891c-2.793,0-5.188-1.098-5.287-3.792h3.292
				c0.1,0.898,0.898,1.497,1.995,1.497c0.998,0,1.696-0.399,1.696-1.297c0-0.998-1.696-1.397-2.395-1.497
				c-2.294-0.499-4.39-1.097-4.39-3.791c0-2.494,2.993-3.592,5.088-3.592c2.495,0,4.689,0.898,4.789,3.592h-3.292V9.104z"/>
			<path fill="#231F20" d="M488.934,9.104c0-0.798-0.798-1.197-1.596-1.197c-0.998,0-1.397,0.299-1.397,1.098
				c0,1.896,6.885,0.798,6.885,5.288c0,2.594-3.193,3.891-5.388,3.891c-2.794,0-5.188-1.098-5.288-3.792h3.293
				c0.1,0.898,0.897,1.497,1.995,1.497c0.997,0,1.696-0.399,1.696-1.297c0-0.998-1.696-1.397-2.395-1.497
				c-2.295-0.499-4.391-1.097-4.391-3.791c0-2.494,2.993-3.592,5.089-3.592c2.494,0,4.689,0.898,4.789,3.592h-3.293V9.104z"/>
			<path fill="#231F20" d="M381.085,41.229v-17.16h6.485c3.093-0.2,6.185,1.097,6.185,4.49c0,1.896-1.297,3.192-2.993,3.791l0,0
				c2.195,0.499,3.791,1.995,3.791,4.49c0,3.392-4.29,4.689-6.884,4.489h-6.584V41.229z M387.669,30.953
				c1.596,0,2.395-0.599,2.395-1.995c0-1.397-0.898-1.996-2.395-1.996h-2.894v4.091h2.894V30.953z M387.669,38.336
				c1.696,0,2.894-0.299,2.894-2.294s-1.197-2.295-2.894-2.295h-2.894v4.589H387.669z"/>
			<path fill="#231F20" d="M400.439,24.069v17.16h-3.592v-17.16H400.439z"/>
			<path fill="#231F20" d="M411.314,39.733c-0.798,1.097-1.896,1.796-3.691,1.796c-1.197,0-3.492-0.898-3.891-2.694
				c-0.2-0.698-0.2-1.497-0.2-1.896v-7.682h3.592v7.183c0,1.297,0.399,2.793,2.096,2.793c1.097,0,2.095-0.998,2.095-2.793v-7.183
				h3.592v9.777c0,0.698,0.1,1.396,0.1,2.095h-3.592L411.314,39.733z"/>
			<path fill="#231F20" d="M421.191,36.241c0,1.596,0.199,2.993,2.095,2.993c1.197,0,1.896-0.499,2.195-1.596h3.192
				c-0.299,2.993-2.594,3.891-5.388,3.891c-4.09,0-5.786-2.295-5.786-6.286c0-3.591,2.095-6.385,5.786-6.385
				c2.195,0,4.091,0.798,5.089,2.893c0.299,0.698,0.498,1.396,0.599,2.095c0.1,0.698,0.1,1.497,0.1,2.294h-7.882V36.241z
				 M425.382,33.847c0-1.297-0.399-2.494-2.096-2.494c-1.596,0-1.995,1.197-2.095,2.494H425.382z"/>
			<path fill="#231F20" d="M440.646,28.958c-0.1-1.696-1.098-2.594-2.894-2.594c-1.396,0-2.693,0.699-2.693,2.195
				c0,1.896,1.695,2.095,3.192,2.394c2.594,0.699,6.484,1.397,6.484,4.889c0,4.29-3.691,5.787-7.383,5.787
				c-3.891,0-6.685-1.497-6.584-5.886h3.791c-0.1,1.896,0.997,3.192,2.893,3.192c1.497,0,3.393-0.499,3.393-2.294
				c0-1.996-2.494-2.195-3.891-2.594c-2.395-0.599-5.688-1.696-5.688-4.789c0-3.891,3.592-5.687,7.184-5.687
				c3.293,0,5.887,1.796,5.887,5.288h-3.691V28.958z"/>
			<path fill="#231F20" d="M447.231,41.229v-17.16h3.591v6.685l0,0c0.698-1.098,1.896-1.796,3.691-1.796
				c1.197,0,3.492,0.898,3.891,2.594c0.2,0.698,0.2,1.497,0.2,1.896v7.782h-3.492v-7.184c0-1.297-0.398-2.693-2.095-2.693
				c-1.098,0-2.096,0.998-2.096,2.693v7.184H447.231z"/>
			<path fill="#231F20" d="M465.488,24.069v3.093h-3.791v-3.093H465.488z M465.289,29.257v11.972h-3.592V29.257H465.289z"/>
			<path fill="#231F20" d="M471.574,36.241c0,1.596,0.199,2.993,2.095,2.993c1.197,0,1.896-0.499,2.195-1.596h3.192
				c-0.299,2.993-2.594,3.891-5.388,3.891c-4.09,0-5.786-2.295-5.786-6.286c0-3.591,2.095-6.385,5.786-6.385
				c2.195,0,4.091,0.798,5.089,2.893c0.299,0.698,0.499,1.396,0.599,2.095c0.1,0.698,0.1,1.497,0.1,2.294h-7.882V36.241z
				 M475.665,33.847c0-1.297-0.399-2.494-2.096-2.494c-1.596,0-1.995,1.197-2.095,2.494H475.665z"/>
			<path fill="#231F20" d="M485.143,24.069v17.16h-3.592v-17.16H485.143z"/>
			<path fill="#231F20" d="M496.517,24.069h3.592v14.865c0,0.798,0.1,1.596,0.1,2.395h-3.592c0-0.599-0.1-1.098-0.1-1.696l0,0
				c-0.799,1.397-2.096,2.095-3.691,2.095c-3.492,0-5.188-3.292-5.188-6.385c0-3.193,1.896-6.385,5.587-6.385
				c1.197,0,2.494,0.698,3.192,1.696l0,0v-6.584H496.517z M493.923,39.234c1.896,0,2.594-2.294,2.594-3.991
				c0-1.596-0.599-3.991-2.594-3.991c-2.295,0-2.595,2.095-2.595,3.991C491.328,37.039,491.628,39.234,493.923,39.234z"/>
		</g>
	</g>
	<path fill="#0094D7" d="M326.811,41.03c-1.098,0-1.896-0.798-1.896-1.896s0.798-1.896,1.896-1.896s1.896,0.798,1.896,1.896
		S328.008,41.03,326.811,41.03 M326.811,36.84c-1.297,0-2.295,0.998-2.295,2.294s0.998,2.294,2.295,2.294
		c1.197,0,2.294-0.998,2.294-2.294S328.108,36.84,326.811,36.84"/>
	<path fill="#0094D7" d="M326.811,38.935h-0.499v-0.798h0.698c0.3,0,0.599,0,0.599,0.399
		C327.709,39.035,327.11,38.935,326.811,38.935 M328.008,38.536c0-0.499-0.2-0.698-0.898-0.698h-1.097v2.594h0.299v-1.197h0.599
		l0.698,1.098h0.399l-0.798-1.098C327.709,39.234,328.008,39.035,328.008,38.536"/>
	<path fill="#231F20" d="M494.521,17.884c-0.598,0-1.097-0.499-1.097-1.098s0.499-1.097,1.097-1.097
		c0.599,0,1.098,0.499,1.098,1.097S495.22,17.884,494.521,17.884 M494.521,15.39c-0.698,0-1.297,0.599-1.297,1.297
		s0.599,1.297,1.297,1.297c0.699,0,1.298-0.599,1.298-1.297S495.22,15.39,494.521,15.39"/>
	<path fill="#231F20" d="M494.521,16.687h-0.299v-0.499h0.399c0.199,0,0.398,0,0.398,0.2
		C495.02,16.687,494.721,16.687,494.521,16.687 M495.22,16.387c0-0.299-0.101-0.399-0.499-0.399h-0.698v1.496h0.199v-0.698h0.299
		l0.399,0.698h0.199l-0.398-0.698C495.02,16.786,495.22,16.687,495.22,16.387"/>
	<path fill="#231F20" d="M502.203,41.129c-0.599,0-1.098-0.499-1.098-1.097s0.499-1.098,1.098-1.098s1.098,0.499,1.098,1.098
		S502.802,41.129,502.203,41.129 M502.203,38.635c-0.698,0-1.297,0.599-1.297,1.297c0,0.699,0.599,1.297,1.297,1.297
		s1.297-0.599,1.297-1.297C503.5,39.234,502.901,38.635,502.203,38.635"/>
	<path fill="#231F20" d="M502.104,39.932h-0.3v-0.499h0.399c0.199,0,0.399,0,0.399,0.199
		C502.603,39.932,502.402,39.932,502.104,39.932 M502.901,39.633c0-0.299-0.1-0.399-0.499-0.399h-0.698v1.497h0.2v-0.698h0.299
		l0.399,0.698h0.199l-0.399-0.698C502.702,40.032,502.901,39.932,502.901,39.633"/>
	<path fill="#0099CC" d="M317.832,11.798V0.524h-18.058v11.274H288.5v18.058h11.274v11.374h18.058V29.856h11.273V11.798H317.832z"/>
	<path fill="#0099CC" d="M365.621,41.03c-1.097,0-1.896-0.798-1.896-1.896s0.798-1.896,1.896-1.896c1.098,0,1.896,0.798,1.896,1.896
		S366.718,41.03,365.621,41.03 M365.621,36.939c-1.197,0-2.195,0.998-2.195,2.195s0.998,2.195,2.195,2.195s2.195-0.998,2.195-2.195
		S366.818,36.939,365.621,36.939"/>
	<path fill="#0099CC" d="M365.621,39.035h-0.499v-0.798h0.698c0.299,0,0.599,0,0.599,0.399
		C366.419,39.035,365.92,39.035,365.621,39.035 M366.818,38.536c0-0.499-0.2-0.698-0.898-0.698h-1.098v2.494h0.3v-1.098h0.499
		l0.699,1.098h0.399l-0.798-1.098C366.419,39.234,366.818,39.035,366.818,38.536"/>
	<path fill="#0099CC" d="M365.421,0.524c-4.39,2.195-8.78,3.392-13.867,3.392c-5.088,0-9.478-1.197-13.868-3.392
		c-2.894,5.687-3.292,14.866-0.798,22.548c2.394,7.383,7.083,14.167,14.666,18.357c7.682-4.19,12.271-10.974,14.666-18.357
		C368.813,15.39,368.314,6.211,365.421,0.524"/>
	<path fill="#0F99D6" d="M351.554,36.44L351.554,36.44L351.554,36.44z"/>
	<path fill="#FFFFFF" d="M315.737,29.656L315.737,29.656l-5.088-9.578c-0.399-0.798-0.199-2.195,1.197-2.395l7.482-0.698l0,0l0,0
		l0,0c0.499,1.197,0.699,2.594,0.699,3.891C320.027,24.468,318.331,27.661,315.737,29.656"/>
	<path fill="#FFFFFF" d="M314.938,30.255L314.938,30.255c-1.796,1.197-3.891,1.796-6.186,1.796s-4.39-0.698-6.186-1.796l0,0l0,0l0,0
		l5.487-8.081c0.399-0.599,0.998-0.499,1.396,0L314.938,30.255L314.938,30.255L314.938,30.255z"/>
	<path fill="#FFFFFF" d="M297.679,20.876c0-1.396,0.299-2.693,0.698-3.891l0,0l0,0l0,0l7.483,0.698
		c1.396,0.2,1.596,1.596,1.197,2.395l-5.088,9.678l0,0C299.375,27.661,297.679,24.468,297.679,20.876"/>
	<path fill="#0094D7" d="M308.853,23.87c-0.1,0-0.1,0-0.2,0.1l-3.791,5.787c1.197,0.499,2.494,0.798,3.891,0.798
		s2.694-0.299,3.891-0.798l-3.792-5.787C308.952,23.87,308.853,23.87,308.853,23.87"/>
	<path fill="#0094D7" d="M305.161,19.081l-5.687-0.499c-0.2,0.698-0.299,1.497-0.299,2.294c0,2.395,0.898,4.589,2.294,6.286
		l3.991-7.583C305.66,19.38,305.561,19.181,305.161,19.081"/>
	<path fill="#FFFFFF" d="M308.853,9.703c4.49,0,8.381,2.594,10.077,6.485h-7.981c-1.097,0-1.596-0.698-1.696-1.197
		c0-0.599,0.1-0.798,0.599-1.497c0.599-0.798,0.199-2.195-1.098-2.294c-1.297,0-1.696,1.497-1.098,2.294
		c0.499,0.699,0.599,0.898,0.599,1.497c0,0.499-0.499,1.197-1.696,1.197h-7.981C300.472,12.396,304.363,9.703,308.853,9.703"/>
	<path fill="#0094D7" d="M316.136,14.591c-1.197-1.397-2.793-2.494-4.589-2.993c0.599,0.898,0.1,2.195-0.399,2.793
		c-0.1,0.1,0,0.2,0,0.2H316.136z"/>
	<path fill="#0094D7" d="M312.544,19.081c-0.399,0-0.399,0.199-0.299,0.399l3.991,7.583c1.397-1.696,2.295-3.891,2.295-6.286
		c0-0.798-0.1-1.596-0.3-2.294L312.544,19.081z"/>
	<path fill="#0094D7" d="M306.159,11.698c-1.796,0.499-3.392,1.596-4.589,2.993h4.988c0.1,0,0.1-0.1,0-0.199
		C306.059,13.793,305.561,12.596,306.159,11.698"/>
	<path fill="#FFFFFF" d="M363.426,22.174c-2.195,6.285-5.487,11.872-11.772,15.763l0,0l0,0l0,0
		c-6.286-3.891-9.678-9.478-11.773-15.763c-1.995-5.587-2.494-12.172-0.399-17.36c3.193,1.098,4.988,1.397,6.685,1.696
		c1.596,0.299,2.993,0.399,5.388,0.399l0,0c2.294,0,3.791-0.2,5.387-0.399c1.696-0.299,3.592-0.599,6.684-1.696
		C365.721,10.002,365.321,16.586,363.426,22.174"/>
	<path fill="#0099CC" d="M357.041,8.007c-1.796,0.199-3.691,0.399-5.487,0.399l0,0c-1.796,0-3.592-0.2-5.488-0.399
		c-1.795-0.299-3.591-0.699-5.487-1.197c-1.297,3.791-1.097,8.58,0,12.77c1.896,7.981,6.785,14.067,10.975,16.761
		c4.29-2.694,9.079-8.78,10.974-16.761c0.998-4.29,1.297-8.979,0-12.77C360.632,7.308,358.936,7.807,357.041,8.007"/>
	<path fill="#FFFFFF" d="M356.143,12.297c-0.1,0.299-0.2,0.299-0.399,0.499c-0.399,0.399-0.998,0.798-1.596,1.297
		c-0.399,0.299-0.698,0.499-0.998,0.998c-0.1,0.1-0.2,0.299-0.2,0.299c-0.998-0.2-1.896-0.2-2.694-0.399v-0.798
		c0,0,0.898,0,0.998-0.599c0,0,0-0.2-0.1-0.299c-0.1-0.1-0.399-0.2-0.499-0.2c0.699,0.1,1.397,0.399,2.095,0.698
		c0-0.1-0.1-0.399-0.1-0.399c-0.1-0.1-0.2-0.2-0.499-0.299c-0.399-0.1-1.497-0.2-1.497-0.2s0.399,0,0.898,0
		c0.199,0,0.499-0.1,0.499-0.199c0.1-0.1,0-0.299-0.2-0.499c-0.1-0.1-0.199-0.199-0.299-0.299c-0.1-0.199-0.3-0.399-0.399-0.599
		c-0.199-0.299-0.998-0.599-0.998-0.599s0.1-0.499,0.2-0.698c0.1-0.2,0.499-0.2,0.599-0.1c0.499,0.299,1.197,0.599,1.896,0.798
		c0.199,0.1,0.199,0.1,0.199,0.399c0.1,0.499-0.1,1.197,0,1.496c0,0.1,0.2,0.1,0.2,0.1c0.698-0.399,1.097-0.998,1.796-1.297
		C355.444,11.199,356.342,11.598,356.143,12.297"/>
	<path fill="#FFFFFF" d="M353.15,21.575c0,0,0.1-1.397,0.1-2.095c0.399-0.1,0.499-0.499,0.299-0.798
		c-0.1-0.199-0.399-0.299-0.499-0.299c-0.798-0.199-1.496-0.199-2.294-0.299c-0.699-0.1-1.297-0.199-1.896-0.299
		c-1.297-0.299-2.494-0.998-3.093-2.195c-0.698-1.497-0.1-3.392,1.397-4.09c1.097-0.599,2.294-0.499,3.392,0
		c0.399,0.1,0.599,0.499,0.798,0.798c0.1,0.1,0.299,0.199,0.399,0.399c0.1,0.1-0.1,0.1-0.1,0.1c-0.2,0.1-1.098,0.1-1.297,0
		c-0.3,0-0.898,0-1.197,0c0.299,0.2,0.698,0.399,1.097,0.599c0.2,0.1,0.399,0.1,0.599,0.2c0.1,0,0.299,0.1,0.299,0.199
		c0,0.1-0.199,0.1-0.399,0.2c-0.299,0.1-0.699,0.1-1.098,0c-0.599-0.1-0.898-0.499-1.297-0.299c-0.299,0.2-0.299,0.499-0.2,0.898
		c0.1,0.599,0.698,0.798,1.197,0.998c1.696,0.599,3.592,0.2,5.188,1.098c0.599,0.299,1.396,0.998,1.497,1.696
		C356.542,21.176,353.15,21.575,353.15,21.575"/>
	<path fill="#FFFFFF" d="M350.456,18.582c0,0,0.299,0,1.197,0.1c0.599,0,1.097,0.2,1.097,0.2l-0.1,2.993
		c-0.698-0.1-1.097-0.2-1.696-0.299c-0.2-1.098-0.499-1.497-0.898-2.295c-0.1-0.199,0-0.299,0-0.299
		c0.1-0.1,0.499-0.199,0.499-0.199L350.456,18.582z"/>
	<path fill="#FFFFFF" d="M355.045,25.067c-0.1,0.499-0.399,0.898-0.898,1.197c-0.499,0.299-1.098,0.299-1.098,0.299v-1.696
		c0,0,0.1,0,0.2-0.1s0.1-0.2,0.1-0.299s-0.1-0.2-0.199-0.299c-0.2-0.1-0.399-0.1-0.499-0.1c-0.798-0.1-1.596-0.2-2.395-0.299
		c-1.397-0.2-2.494-1.098-2.395-2.494c0.1-0.898,0.998-1.197,1.696-1.497c0.2,0.399,0.399,0.798,0.499,0.998
		c0.1,0.399,0.2,0.599,0.2,0.599s-0.299,0.1-0.299,0.299c0,0.2,0.299,0.299,0.399,0.299c0.998,0.1,2.394,0.299,3.093,0.599
		c0.499,0.2,0.897,0.399,1.197,0.798C355.045,24.069,355.145,24.568,355.045,25.067"/>
	<path fill="#FFFFFF" d="M351.055,24.468c0.698,0.1,0.898,0.1,1.497,0.2l-0.1,2.694l-0.599-0.299l-0.599-0.299L351.055,24.468z"/>
	<path fill="#FFFFFF" d="M353.549,30.953c-0.399,0.299-0.798,0.399-0.798,0.399v-1.197c0,0,0.1-0.1,0.1-0.299
		c-0.1-0.2-0.898-0.798-1.297-0.998c-0.499-0.2-1.098-0.399-1.497-0.499c-0.998-0.399-1.396-1.297-0.998-2.295
		c0.1-0.399,0.599-0.599,0.798-0.698c0.199-0.1,0.599-0.2,0.599-0.2l0.1,1.397c0,0-0.1,0-0.199,0.2
		c-0.1,0.199,0.1,0.399,0.199,0.399c0.698,0.299,1.596,0.698,2.295,1.098c0.897,0.499,1.197,0.898,1.197,1.596
		C354.147,30.354,353.848,30.754,353.549,30.953"/>
	<path fill="#FFFFFF" d="M352.252,33.946c0,0.2-0.1,0.399-0.499,0.399c-0.299,0-0.499-0.1-0.499-0.499c-0.1-1.597-0.1-4.49-0.1-4.49
		s0.399,0.1,0.698,0.299c0.1,0,0.299,0.2,0.499,0.399c0,0.1,0.1,0.1,0.1,0.199C352.352,31.353,352.252,33.447,352.252,33.946"/>
	<path fill="#FFFFFF" d="M350.556,32.649c-0.1,0.399,0.1,0.599,0.1,0.798c-0.1,0.299-0.299,0.2-0.399,0
		c-0.2-0.299-0.299-0.499-0.299-0.998c-0.1-0.798,0.299-1.097,0.499-1.297c0.199-0.2,0.399-0.299,0.399-0.299l0.1,1.297
		C350.755,32.15,350.556,32.25,350.556,32.649"/>
	<path fill="#0094D7" d="M349.458,11.598c0.2,0.2,0.2,0.399,0.499,0.399c0.2,0,0.299-0.1,0.399-0.2h0.199
		c-0.299-0.299-0.998-0.299-1.497-0.399C349.259,11.598,349.358,11.499,349.458,11.598"/>
</g>
</svg>
