<?xml version="1.0" encoding="utf-8"?>
<!-- Generator: Adobe Illustrator 22.0.1, SVG Export Plug-In . SVG Version: 6.00 Build 0)  -->
<svg version="1.1"
	 id="svg2" inkscape:version="0.48.2 r9819" sodipodi:docname="New document 1" xmlns:cc="http://creativecommons.org/ns#" xmlns:dc="http://purl.org/dc/elements/1.1/" xmlns:inkscape="http://www.inkscape.org/namespaces/inkscape" xmlns:rdf="http://www.w3.org/1999/02/22-rdf-syntax-ns#" xmlns:sodipodi="http://sodipodi.sourceforge.net/DTD/sodipodi-0.dtd" xmlns:svg="http://www.w3.org/2000/svg"
	 xmlns="http://www.w3.org/2000/svg" xmlns:xlink="http://www.w3.org/1999/xlink" x="0px" y="0px" viewBox="0 0 200 51"
	 style="enable-background:new 0 0 200 51;" xml:space="preserve">
<style type="text/css">
	.st0{fill:#5E9732;}
</style>
<sodipodi:namedview  bordercolor="#666666" borderopacity="1.0" fit-margin-bottom="0.5" fit-margin-left="0.5" fit-margin-right="0.5" fit-margin-top="0.5" id="base" inkscape:current-layer="g2993" inkscape:cx="811.13371" inkscape:cy="110.58252" inkscape:document-units="px" inkscape:pageopacity="0.0" inkscape:pageshadow="2" inkscape:window-height="1028" inkscape:window-maximized="1" inkscape:window-width="1920" inkscape:window-x="-8" inkscape:window-y="-8" inkscape:zoom="0.7" pagecolor="#ffffff" showgrid="false">
	</sodipodi:namedview>
<g id="layer1" transform="translate(-19.492907,-61.970926)" inkscape:groupmode="layer" inkscape:label="Layer 1">
	
		<g id="g2993" transform="matrix(1.25,0,0,-1.25,-7.95,1027.3809)" inkscape:label="2013_medicare_cvs_essentials_preferred_drug_list">
		<g id="g3061" transform="matrix(4.3048052,0,0,4.3048052,788.64409,717.77353)">
			<path id="path3063" inkscape:connector-curvature="0" class="st0" d="M-142.5,10.2c0-0.1,0.1-0.2,0.2-0.2c0.1,0,0.2,0.1,0.2,0.1
				c0,0.1,0,0.1-0.1,0.1c-0.1,0-0.1,0-0.2,0.1c-0.1,0-0.2,0.1-0.2,0.2c0,0.2,0.2,0.2,0.3,0.2c0.2,0,0.3-0.1,0.3-0.3h-0.1
				c0,0.1-0.1,0.1-0.2,0.1c-0.1,0-0.2,0-0.2-0.1c0-0.1,0-0.1,0.1-0.1c0,0,0.2-0.1,0.2-0.1c0.1,0,0.2-0.1,0.2-0.2
				c0-0.2-0.2-0.3-0.3-0.3c-0.2,0-0.3,0.1-0.3,0.3H-142.5z M-141.8,10.7h0.2l0.2-0.7h0l0.2,0.7h0.2V9.9h-0.1v0.6h0l-0.2-0.6h-0.1
				l-0.2,0.6h0V9.9h-0.1V10.7z M-158.1,5l0.1-1.6c-0.2-0.1-0.8-0.2-1.6-0.2c-1.6,0-2.5,0.7-2.5,2.4c0,1.3,0,2.8,0,3.5h-0.8
				c0,0.4,0,0.9,0,1.2c1.3,0.2,1.7,0.9,1.9,2.3h1.4c0-0.6-0.1-1.4-0.1-2h1.5V9.1h-1.5V6.2c0-1.1,0.2-1.4,1-1.4
				C-158.5,4.8-158.2,4.9-158.1,5L-158.1,5z M-150.3,6.8c0,0.6,0,1.5,0,1.5c0,1.9-0.8,2.7-3.1,2.7c-1.3,0-2.2-0.2-3.7-0.2
				c0.1-1.3,0.1-2.9,0.1-3.9c0-1,0-2.8-0.1-3.4h2.5c-0.1,0.6-0.1,2.3-0.1,3.4c0,0.7,0,1.4,0,2.5c0.2,0.1,0.6,0.1,0.9,0.1
				c0.9,0,1.1-0.4,1.1-1.5c0,0,0-0.7,0-1.1c0-1,0-2.8-0.1-3.4h2.5C-150.3,3.9-150.3,5.6-150.3,6.8L-150.3,6.8z M-166.9,6.5
				c-0.3,0-0.7,0-0.9,0l0-0.1c0-1.1,0.7-1.7,2-1.7c0.8,0,1.5,0.2,2,0.5l0.1-1.6c-0.5-0.2-1.5-0.4-2.4-0.4c-2.6,0-3.9,0.9-4.1,3.3
				c-0.3,0-0.7,0-1.4,0c0-0.4,0-0.8,0-1.1c0-0.6,0-1.5,0.1-2.1c-1.4,0-2.5-0.2-3.7-0.2c-2.1,0-2.9,0.9-2.9,2.4
				c0,1.5,1.2,2.2,3.8,2.2c0.1,0,0.3,0,0.4,0l0,0.2c0,1-0.3,1.5-1.4,1.5c-0.7,0-1.5-0.3-2-0.5l-0.1,1.6c0.6,0.2,1.6,0.4,2.7,0.4
				c2.3,0,3.1-0.7,3.1-2.8c0-0.1,0-0.2,0-0.3c0.6,0,1,0,1.3,0c0.2,2,1.2,3.2,3.8,3.2c2.1,0,3.1-0.9,3.1-2.2
				C-163.4,7.2-164.6,6.5-166.9,6.5L-166.9,6.5z M-174,4.7c0,0.5,0,1.2,0,1.8c-0.1,0-0.2,0-0.3,0c-1.1,0-1.5-0.4-1.5-1
				c0-0.7,0.3-0.9,1.1-0.9C-174.4,4.6-174.2,4.7-174,4.7z M-167.2,7.7c1,0,1.5,0.3,1.5,1.1c0,0.5-0.3,0.8-0.9,0.8
				c-0.9,0-1.3-0.8-1.3-1.8l0,0C-167.7,7.7-167.4,7.7-167.2,7.7z M-142.8,3.4c-1.4,0-2.5-0.2-3.7-0.2c-2.1,0-2.9,0.9-2.9,2.4
				c0,1.5,1.2,2.2,3.8,2.2c0.1,0,0.3,0,0.4,0l0,0.2c0,1-0.3,1.5-1.4,1.5c-0.7,0-1.5-0.3-2-0.5l-0.1,1.6c0.6,0.2,1.6,0.4,2.7,0.4
				c2.3,0,3.1-0.7,3.1-2.8c0-1.1-0.1-2-0.1-2.7C-142.9,4.8-142.9,4-142.8,3.4z M-145.2,4.7c0,0.5,0,1.2,0,1.8c-0.1,0-0.2,0-0.3,0
				c-1.1,0-1.5-0.4-1.5-1c0-0.7,0.3-0.9,1.1-0.9C-145.7,4.6-145.4,4.7-145.2,4.7"/>
		</g>
	</g>
</g>
</svg>
