<?xml version="1.0" encoding="utf-8"?>
<!-- Generator: Adobe Illustrator 22.0.1, SVG Export Plug-In . SVG Version: 6.00 Build 0)  -->
<svg version="1.1" id="Layer_1" xmlns="http://www.w3.org/2000/svg" xmlns:xlink="http://www.w3.org/1999/xlink" x="0px" y="0px"
	 viewBox="0 0 200 65.5" style="enable-background:new 0 0 200 65.5;" xml:space="preserve">
<style type="text/css">
	.st0{fill:#0982C6;}
	.st1{fill:#F8971F;}
	.st2{fill:#56B948;}
</style>
<g>
	<path class="st0" d="M49.2,28c0,0.5-0.5,1.1-1.2,1.9c-2.4,2.9-7.6,8.1-7.6,20.9c0,6.6,1.1,9.4,1.1,12.5c0,1.4-0.3,2.1-1,2.1
		c-1.7,0-4.5-7-4.5-15.4c0-17.6,11.1-22.5,12.8-22.5C49,27.6,49.2,27.8,49.2,28 M21.2,27.6c1.7,0,12.8,4.9,12.8,22.5
		c0,8.4-2.8,15.4-4.5,15.4c-0.7,0-1-0.7-1-2.1c0-3.1,1.1-5.9,1.1-12.5c0-12.8-5.3-18-7.6-20.9c-0.7-0.9-1.2-1.4-1.2-1.9
		C20.7,27.8,20.9,27.6,21.2,27.6z"/>
	<path class="st1" d="M30.9,31.1c0,2.3,1.8,4.2,4,4.2c2.2,0,4-1.9,4-4.2c0-2.3-1.8-4.2-4-4.2C32.7,27,30.9,28.8,30.9,31.1"/>
	<path class="st2" d="M69.5,57.2C63.8,53.7,55,50,42.3,48.8c0,0.2-0.1,1.1-0.1,2c0,0.4,0.1,1,0.1,1.1c12.4,0.8,21.2,3.4,27.2,5.6
		c0.1,0,0.2,0.1,0.3,0.1c0.1,0,0.1,0,0.1-0.1C69.9,57.4,69.8,57.4,69.5,57.2 M41.5,9.9c-1-0.9-1.8-2.2-1.2-4.2
		c0.6-1.9,2.1-3.5,3.7-4c1.1,1.3,1.4,3.4,0.8,5.4C44.2,9.1,42.8,9.7,41.5,9.9z M50.9,17.6c-0.3-1.2-0.3-2.7,1.3-4
		c1.5-1.3,3.5-1.8,5-1.3c0.2,1.6-0.6,3.5-2.1,4.8C53.5,18.4,52,18.2,50.9,17.6z M51.2,29.4c0.4-1.2,1.2-2.4,3.2-2.6
		c1.9-0.2,3.8,0.5,4.8,1.7c-0.7,1.4-2.4,2.5-4.3,2.7C52.9,31.4,51.8,30.4,51.2,29.4z M47.8,33.6c0.6-0.9,1.7-1.7,3.4-1.3
		c1.7,0.3,3.1,1.4,3.6,2.7c-0.9,1-2.7,1.5-4.4,1.2C48.7,35.8,48,34.7,47.8,33.6z M37.6,22.5c-1.2-1.1-2.1-2.6-1.4-5.1
		c0.7-2.3,2.5-4.2,4.4-4.8c1.3,1.5,1.7,4.1,1,6.4C40.9,21.6,39.2,22.3,37.6,22.5z M42,25.1c-0.4-1.4-0.3-3,1.4-4.5
		c1.7-1.4,4-2,5.7-1.5c0.2,1.8-0.7,3.9-2.4,5.3C45,26,43.3,25.7,42,25.1z M45,15.6c-0.9-1.4-1.4-3.2,0.1-5.4
		c1.4-2.1,3.6-3.5,5.7-3.4c0.8,1.8,0.5,4.5-0.8,6.6C48.5,15.6,46.6,15.9,45,15.6z M51,23.9c0-1.5,0.5-3.2,2.7-4.2
		c2.1-1,4.6-0.9,6.2,0.2c-0.3,1.9-1.8,3.8-4,4.7C53.7,25.6,52.1,24.8,51,23.9z M31.7,6.8c0-2.8,1.3-5.5,3.3-6.8
		c1.9,1.2,3.3,3.9,3.3,6.8c0,3-1.6,4.4-3.3,5.1C33.3,11.1,31.7,9.7,31.7,6.8z M0,57.5c0,0.1,0,0.1,0.1,0.1c0.1,0,0.2-0.1,0.3-0.1
		c6-2.1,14.8-4.8,27.2-5.6c0-0.1,0.1-0.7,0.1-1.1c0-0.9-0.1-1.8-0.1-2C14.9,50,6.1,53.7,0.3,57.2C0.1,57.4,0,57.4,0,57.5z M25,7
		c-0.6-1.9-0.3-4.1,0.8-5.4c1.6,0.4,3.1,2,3.7,4c0.6,2-0.2,3.4-1.2,4.2C27.1,9.7,25.7,9.1,25,7z M14.8,17.1
		c-1.5-1.3-2.3-3.2-2.1-4.8c1.5-0.5,3.5,0,5,1.3c1.6,1.3,1.6,2.8,1.3,4C17.9,18.2,16.4,18.4,14.8,17.1z M15,31.2
		c-1.9-0.2-3.6-1.3-4.3-2.7c1-1.2,2.9-1.9,4.8-1.7c2,0.2,2.8,1.4,3.2,2.6C18.1,30.4,17,31.4,15,31.2z M19.4,36.2
		C17.8,36.5,16,36,15,35c0.5-1.3,2-2.4,3.6-2.7c1.8-0.3,2.8,0.5,3.4,1.3C21.8,34.7,21.2,35.8,19.4,36.2z M28.3,19.1
		c-0.7-2.3-0.3-4.9,1-6.4c1.9,0.5,3.7,2.4,4.4,4.8c0.8,2.4-0.2,4-1.4,5.1C30.7,22.3,29,21.6,28.3,19.1z M23.1,24.5
		c-1.7-1.4-2.6-3.6-2.4-5.3c1.7-0.5,4,0,5.7,1.5c1.8,1.5,1.8,3.2,1.4,4.5C26.6,25.7,24.9,26,23.1,24.5z M20,13.4
		c-1.4-2.1-1.7-4.7-0.8-6.6c2,0,4.3,1.3,5.7,3.4c1.4,2.2,0.9,4,0.1,5.4C23.3,15.9,21.4,15.6,20,13.4z M13.9,24.6
		c-2.1-1-3.7-2.9-4-4.7c1.6-1,4.1-1.1,6.2-0.2c2.2,1,2.7,2.7,2.7,4.2C17.7,24.8,16.1,25.6,13.9,24.6z"/>
	<path class="st0" d="M141.5,48.9V32.6c0-2.2-0.2-6.4-0.3-7.3h5l0.2,3.3h0.1c0.6-0.9,2.5-3.8,6.9-3.8c5.3,0,8.3,3.9,8.3,8.8v15.3
		h-5.6V34.7c0-3-1.7-5.3-4.5-5.3c-3,0-4.5,2.4-4.5,5.3v14.2H141.5 M108.6,25.4H103v23.5h5.6V25.4z M188.7,48.9
		c-0.2-1.3-0.7-4.8-0.7-7.8V25.8c-0.9-0.2-4.1-1.1-7.7-1.1c-9.5,0-13.6,6.4-13.6,13.3c0,6.3,3.2,11.3,9.3,11.3
		c4.5,0,6.5-2.9,7.2-4.4h0.1c0.1,0.7,0.3,3.2,0.3,3.9H188.7z M182.4,37.2c0,5.4-2.1,7.6-5.2,7.6c-3.1,0-4.8-2.6-4.8-7.2
		c0-4.7,2.7-8.5,7.6-8.5c1,0,1.7,0.1,2.3,0.2V37.2z M97.4,43.1c-1.5,0.7-4,1.2-6.3,1.2c-6.5,0-11.2-4.6-11.2-11.7
		c0-7,4.7-11.7,11.2-11.7c3.2,0,5.5,0.8,6.3,1.2v-5c-1.4-0.5-3.7-1.1-6.9-1.1c-10,0-16.8,6.9-16.8,16.6c0,9.1,6.2,16.6,16.8,16.6
		c3.1,0,5.4-0.5,6.9-1.1V43.1z M129.8,46v1.8c0,4.8-3,6.7-6.6,6.7c-3.3,0-5.7-1-6.5-1.3V58c0.6,0.2,3.3,1,7.1,1
		c6.8,0,11.3-2.8,11.3-12.4V25.8c-0.9-0.2-4.1-1.1-7.7-1.1c-9.5,0-13.6,6.4-13.6,13.3c0,6.3,3.2,11.3,9.3,11.3c4,0,6-2.4,6.6-3.3
		H129.8z M129.5,37.2c0,5.4-2.1,7.6-5.2,7.6c-3.1,0-4.8-2.6-4.8-7.2c0-4.7,2.7-8.5,7.6-8.5c1,0,1.7,0.1,2.3,0.2V37.2z M102.3,19.2
		c0,1.9,1.6,3.4,3.5,3.4c1.9,0,3.5-1.5,3.5-3.4c0-1.9-1.6-3.4-3.5-3.4C103.9,15.8,102.3,17.3,102.3,19.2z"/>
	<path class="st0" d="M199.1,48.2c-0.6,0.6-1.3,0.9-2.2,0.9c-0.9,0-1.6-0.3-2.2-0.9c-0.6-0.6-0.9-1.3-0.9-2.2c0-0.9,0.3-1.6,0.9-2.2
		c0.6-0.6,1.3-0.9,2.2-0.9c0.9,0,1.6,0.3,2.2,0.9c0.6,0.6,0.9,1.3,0.9,2.2C200,46.8,199.7,47.6,199.1,48.2 M195,44
		c-0.5,0.5-0.8,1.2-0.8,1.9c0,0.7,0.3,1.4,0.8,1.9c0.5,0.5,1.2,0.8,1.9,0.8c0.7,0,1.4-0.3,1.9-0.8c0.5-0.5,0.8-1.2,0.8-1.9
		c0-0.7-0.3-1.4-0.8-1.9c-0.5-0.5-1.2-0.8-1.9-0.8C196.1,43.3,195.5,43.5,195,44z M196.8,44.2c0.4,0,0.7,0,0.9,0.1
		c0.4,0.1,0.5,0.4,0.5,0.9c0,0.3-0.1,0.5-0.3,0.7c-0.1,0.1-0.3,0.1-0.5,0.2c0.3,0,0.5,0.2,0.6,0.3c0.1,0.2,0.2,0.4,0.2,0.5v0.3
		c0,0.1,0,0.2,0,0.3c0,0.1,0,0.2,0,0.2l0,0h-0.6c0,0,0,0,0,0c0,0,0,0,0,0l0-0.1v-0.3c0-0.4-0.1-0.7-0.3-0.8
		c-0.1-0.1-0.4-0.1-0.7-0.1h-0.5v1.3h-0.6v-3.4H196.8z M197.5,44.8c-0.2-0.1-0.4-0.1-0.7-0.1h-0.5v1.2h0.5c0.3,0,0.4,0,0.6-0.1
		c0.2-0.1,0.4-0.3,0.4-0.5C197.7,45,197.6,44.8,197.5,44.8z"/>
</g>
</svg>
