<?xml version="1.0" encoding="utf-8"?>
<!-- Generator: Adobe Illustrator 22.0.1, SVG Export Plug-In . SVG Version: 6.00 Build 0)  -->
<svg version="1.1" id="Layer_1" xmlns="http://www.w3.org/2000/svg" xmlns:xlink="http://www.w3.org/1999/xlink" x="0px" y="0px"
	 viewBox="0 0 200 42.1" style="enable-background:new 0 0 200 42.1;" xml:space="preserve">
<style type="text/css">
	.st0{fill:#11228C;}
</style>
<g>
	<path class="st0" d="M26,18.8h6.6v0.8c-1.8,0.1-1.9,0.4-1.9,1.8v11.8c0,2.5,1.5,3.8,3.4,3.8c2.3,0,3.7-1.5,3.7-3.8V21.7
		c0-1.4-0.4-1.9-2-2v-0.8h5.2v0.8c-1.6,0.1-2,0.7-2,2v10.8c0,3.4-1.5,5.3-5.3,5.3c-3.7,0-5.5-2-5.5-5.5V21.4c0-1.4-0.3-1.6-2-1.8
		L26,18.8L26,18.8z"/>
	<path class="st0" d="M40.5,37.4v-0.8c1.4-0.1,1.8-0.5,1.8-1.4v-8.5c0-1.2-0.3-1.4-1.8-1.5v-0.8l4-0.1v2.6l0,0
		c0.8-1.5,1.8-2.7,3.7-2.7c2.3,0,3.3,1.5,3.3,3.8v7.2c0,1,0.4,1.2,1.8,1.4v0.8h-4.1v-9.7c0-1.8-0.7-2.3-1.6-2.3
		c-1.4,0-2.9,1.9-2.9,4.5v5.3c0,0.8,0.4,1.2,1.8,1.4v0.8L40.5,37.4L40.5,37.4z"/>
	<path class="st0" d="M53.8,37.4v-0.8c1.4-0.1,1.8-0.5,1.8-1.4v-8.6c0-1.2-0.4-1.4-1.8-1.5v-0.8l4.1-0.1v11.1c0,0.8,0.4,1.2,1.8,1.4
		v0.8L53.8,37.4L53.8,37.4z M57.9,20.2c0,1.1-0.5,1.8-1.4,1.8c-0.8,0-1.4-0.7-1.4-1.8c0-1,0.5-1.6,1.4-1.6
		C57.3,18.5,57.9,19.2,57.9,20.2L57.9,20.2z"/>
	<path class="st0" d="M63.7,19.5v4.9H67v1.1h-3.3v9.6c0,1.1,0.4,1.6,1.2,1.6c0.8,0,1.5-0.5,1.5-3.4v-0.8h1v1.4c0,2.7-1.1,4-3.1,4
		c-1.8,0-2.9-1.2-2.9-3.4v-8.9h-1.6v-0.8c1.9-0.8,3-1.8,3.1-5.2H63.7L63.7,19.5z"/>
	<path class="st0" d="M71,29.9c0-3.6,1.1-4.9,2.6-4.9c1.4,0,2.2,1.4,2.2,4.9H71L71,29.9z M78.5,30.8c0-4-1.9-6.7-4.9-6.7
		c-3,0-5.2,2.7-5.2,6.8c0,3.4,2.2,6.8,5.6,6.8c3,0,4.4-2.5,4.5-4.8l-0.8-0.3c-0.3,1.9-1.1,4-3.4,4c-1.9,0-3.3-2-3.3-5.9L78.5,30.8
		L78.5,30.8z"/>
	<path class="st0" d="M82.5,31c0-4.1,1-5.9,2.5-5.9c1.6,0,2.7,2,2.7,5.9c0,4.6-1.5,5.9-2.9,5.9C83.4,36.9,82.5,35.2,82.5,31L82.5,31
		z M85.9,19.6c1.4,0,1.8,0.3,1.8,1.4v4.9h-0.1c-0.5-1.1-1.4-1.8-2.7-1.8c-2.7,0-4.9,2.9-4.9,6.8c0,4.2,2.2,6.8,4.6,6.8
		c1.6,0,2.6-1,3.1-2.3h0.1v1.9l3.7-0.1v-0.8c-1.1,0-1.5-0.4-1.5-1.9v-16l-4.1,0.3L85.9,19.6L85.9,19.6z"/>
	<path class="st0" d="M92.2,37.4v-0.8c1.6-0.1,1.9-0.4,1.9-1.9V21.4c0-1.4-0.3-1.6-1.9-1.8v-0.8h6.6v0.8c-1.6,0.1-1.9,0.4-1.9,1.8
		v5.7h5.9v-5.7c0-1.4-0.4-1.6-2-1.8v-0.8h6.6v0.8c-1.6,0.1-1.9,0.4-1.9,1.8v13.3c0,1.5,0.3,1.8,1.9,1.9v0.8h-6.6v-0.8
		c1.6-0.1,2-0.4,2-1.9v-6.6h-5.9v6.6c0,1.5,0.3,1.8,1.9,1.9v0.8H92.2L92.2,37.4z"/>
	<path class="st0" d="M110.2,29.9c0-3.6,1.1-4.9,2.6-4.9s2.3,1.4,2.3,4.9H110.2L110.2,29.9z M117.7,30.8c0-4-1.9-6.7-4.9-6.7
		s-5.2,2.7-5.2,6.8c0,3.4,2.2,6.8,5.6,6.8c3,0,4.4-2.5,4.6-4.8l-1-0.3c-0.3,1.9-1.1,4-3.4,4c-1.8,0-3.3-2-3.3-5.9L117.7,30.8
		L117.7,30.8z"/>
	<path class="st0" d="M124.7,32.1c0,3-1.2,4.6-2.6,4.6c-0.8,0-1.5-0.7-1.5-2.2c0-2.3,1.9-3.3,4.1-4.1L124.7,32.1L124.7,32.1z
		 M128.4,33.7c0,1.9-0.3,2.5-0.7,2.5s-0.7-0.3-0.7-1.1v-7.5c0-2-1.1-3.4-4.1-3.4c-2.5,0-4.1,1.5-4.1,3.3c0,1.1,0.5,1.6,1.2,1.6
		c0.8,0,1.4-0.5,1.4-1.6c0-0.7-0.3-1.4-1.1-1.5c0.5-0.7,1.4-1,2.3-1c1.4,0,2,0.7,2,2.2v2.3c-2.3,0.8-6.6,2-6.6,5.2
		c0,1.8,1.2,3.1,3.3,3.1c1.9,0,2.7-1,3.4-2.2l0,0c0.1,1.5,1,2.2,2.2,2.2c1.6,0,2.3-1.2,2.3-4.1L128.4,33.7L128.4,33.7z"/>
	<path class="st0" d="M128.9,37.4v-0.8c1.4-0.1,1.8-0.5,1.8-1.4V21.1c0-1-0.5-1.5-1.8-1.5v-1l4.1-0.1v16.7c0,0.8,0.4,1.2,1.8,1.4
		v0.8H128.9L128.9,37.4z"/>
	<path class="st0" d="M138.6,19.5v4.9h3.3v1.1h-3.3v9.6c0,1.1,0.4,1.6,1.2,1.6s1.5-0.5,1.5-3.4v-0.8h1v1.4c0,2.7-1.1,4-3.1,4
		c-1.8,0-2.9-1.2-2.9-3.4v-8.9h-1.6v-0.8c1.9-0.8,3-1.8,3.1-5.2H138.6L138.6,19.5z"/>
	<path class="st0" d="M142.2,37.4v-0.8c1.4-0.1,1.8-0.5,1.8-1.4V21c0-1.1-0.4-1.4-1.8-1.4v-0.8l4.1-0.3v8.1l0,0
		c0.5-1.2,1.6-2.5,3.4-2.5c2,0,3.4,1.5,3.4,3.8v7.2c0,0.8,0.4,1.2,1.6,1.4v0.8h-4v-9.6c0-1.8-0.7-2.5-1.6-2.5
		c-1.4,0-2.9,1.8-2.9,4.4v5.5c0,0.8,0.4,1.2,1.8,1.4v0.8L142.2,37.4L142.2,37.4z"/>
	<path class="st0" d="M164.9,33.3c-0.3,2.6-1.4,4.9-4.4,4.9c-2.9,0-5.3-2.9-5.3-7c0-3.3,2.3-6.8,5.6-6.8c2.3,0,3.8,1.5,3.8,3.6
		c0,1.4-0.4,2-1.4,2c-0.8,0-1.4-0.7-1.4-1.6c0-1.1,0.4-1.6,1.1-1.6c0.3,0,0.4,0.1,0.4,0.1h0.1c-0.4-1.1-1.4-1.5-2.3-1.5
		c-2.1,0-3.4,2-3.4,5.9c0,4.5,1.5,5.9,3,5.9c2.2,0,3-2,3.3-4L164.9,33.3L164.9,33.3z"/>
	<path class="st0" d="M172.4,32.3c0,3.1-1.2,4.8-2.6,4.8c-0.8,0-1.5-0.7-1.5-2.2c0-2.3,1.9-3.3,4.1-4.1L172.4,32.3L172.4,32.3z
		 M176.2,34.1c-0.1,1.9-0.3,2.6-0.8,2.6c-0.4,0-0.5-0.4-0.5-1.2v-7.7c0-2-1.2-3.4-4.2-3.4c-2.5,0-4.1,1.5-4.1,3.4
		c0,1.1,0.4,1.6,1.2,1.6c0.8,0,1.4-0.7,1.4-1.6c0-0.8-0.3-1.5-1.1-1.5c0.5-0.7,1.4-1,2.3-1c1.4,0,2,0.7,2,2.2v2.2
		c-2.3,1-6.6,2.2-6.6,5.3c0,1.8,1.2,3.1,3.3,3.1c1.9,0,2.7-1,3.4-2.2l0,0c0.1,1.5,1,2.2,2.2,2.2c1.8,0,2.3-1.2,2.3-4.1L176.2,34.1
		L176.2,34.1z"/>
	<path class="st0" d="M177.3,37.8V37c1.2-0.1,1.6-0.5,1.6-1.4v-7.5c0-1.8-0.4-2.5-1.8-2.5v-0.8l3.8-0.3v3.3l0,0
		c0.4-1.5,1.4-3.4,3-3.4c1,0,1.9,0.8,1.9,2.5c0,1.1-0.5,1.8-1.2,1.8c-0.5,0-1.2-0.4-1.2-1.6c0-0.7,0.4-1.4,1.2-1.4
		c-0.1-0.3-0.4-0.3-0.8-0.3c-1.8,0-2.6,4-2.6,6.3v4c0,0.8,0.4,1.2,2.3,1.4v0.8L177.3,37.8L177.3,37.8z"/>
	<path class="st0" d="M188.7,30.2c0-3.4,1-4.8,2.6-4.8c1.4,0,2.2,1.4,2.2,4.8H188.7L188.7,30.2z M196.2,31.3c0-4-1.9-6.8-4.9-6.8
		c-3.1,0-5.3,2.9-5.3,7c0,3.4,2.3,6.8,5.6,6.8c3.1,0,4.4-2.5,4.6-4.8l-0.8-0.3c-0.3,1.9-1.1,4-3.6,4c-1.8,0-3.1-2-3.1-5.9
		L196.2,31.3L196.2,31.3z"/>
	<path class="st0" d="M197.8,21.1c1.1,0,1.9,0.8,1.9,1.8c0,1.1-0.8,1.9-1.9,1.9c-1,0-1.8-0.8-1.8-1.9C196,22,196.9,21.1,197.8,21.1
		L197.8,21.1z M197.8,20.9c-1.1,0-2,1-2,2c0,1.2,1,2.2,2,2.2c1.2,0,2.2-1,2.2-2.2C200,21.8,199,20.9,197.8,20.9L197.8,20.9z
		 M197.4,23.1h0.4c0.1,0,0.4,0,0.4,0.3c0,0.4,0,0.7,0.1,0.8h0.4c-0.1-0.1-0.1-0.5-0.1-0.5c0-0.5-0.1-0.7-0.4-0.7l0,0
		c0.3,0,0.5-0.3,0.5-0.5s-0.3-0.7-0.7-0.7h-1v2.5h0.3L197.4,23.1L197.4,23.1z M197.4,22h0.5c0.3,0,0.4,0.3,0.4,0.4
		c0,0.3-0.1,0.4-0.4,0.4h-0.5V22L197.4,22z"/>
</g>
<path class="st0" d="M7.8,31.9c-1.2,4.5-3.5,5-4.5,5c-1.7,0-3.3-1.2-3.3-8.7c0-7.6,0-17.7,0-17.7l8.5-4.5v17.2
	C8.5,25.7,8.3,30,7.8,31.9L7.8,31.9z"/>
<path class="st0" d="M8.5,5.9l1.9,0.2V22c0,4.2-0.2,7.8-0.7,10.2c-0.9,3.3-2.8,4.7-4,5.2l-2.4-0.5l0,0c-0.2,0-0.5,0-0.5,0
	c0.2,0.9,0.9,1.7,1.9,1.9c0.2,0.7,0.9,1.4,1.9,1.7C7.3,41.6,8.3,42,9.7,42c1.7,0.2,2.8-0.5,4.3-1.4c4-2.8,5.4-9.2,5.4-17.7V0
	L8.5,5.9L8.5,5.9z M5.4,38.7c3.3-0.5,5.2-4.2,5.7-5.9c0.7-2.6,0.9-5.7,0.9-9.2V4l1.9,0.2v18.4c0,4.5-0.2,8.5-1.2,11.3
	c-1.2,2.6-2.8,4.5-5,5L5.4,38.7L5.4,38.7z M17.7,22.7c0,6.1-0.7,10.4-2.1,13.2c-1.4,2.8-3.5,4.5-5.7,5l-2.6-0.5
	c3.5,0,5.7-3.3,6.6-5.2c1.2-2.6,1.7-6.4,1.7-11.8V1.9l2.1,0.5V22.7L17.7,22.7z"/>
</svg>
